<svg width="83" height="79" viewBox="0 0 83 79" fill="none" xmlns="http://www.w3.org/2000/svg">
<g style="mix-blend-mode:multiply">
<path d="M0 0H73C78.5228 0 83 4.47715 83 10V79L39 37.6881L0 0Z" fill="#7836CC"/>
</g>
<path d="M59.7627 18.0207C59.6926 17.9991 59.6184 17.9943 59.5461 18.0067C59.4738 18.019 59.4054 18.0481 59.3464 18.0917C59.2874 18.1353 59.2394 18.1921 59.2064 18.2576C59.1733 18.3231 59.1561 18.3955 59.1562 18.4688V27.7546C58.6442 27.2634 57.9769 26.9663 57.2694 26.9145C56.5618 26.8627 55.8584 27.0594 55.2803 27.4707C54.7023 27.882 54.2859 28.4822 54.103 29.1676C53.9201 29.8531 53.9821 30.5809 54.2784 31.2255C54.5746 31.8701 55.0866 32.3912 55.7259 32.6988C56.3652 33.0063 57.0918 33.0812 57.7803 32.9104C58.4689 32.7396 59.0763 32.3339 59.4977 31.7632C59.9192 31.1925 60.1283 30.4926 60.0889 29.7842C60.092 29.7625 60.0936 29.7406 60.0936 29.7186V22.8534L65.5807 24.5409C65.6508 24.5624 65.7249 24.5673 65.7971 24.555C65.8693 24.5427 65.9377 24.5137 65.9967 24.4702C66.0557 24.4267 66.1036 24.37 66.1367 24.3046C66.1698 24.2392 66.1871 24.167 66.1873 24.0937V21.7285C66.1874 21.2271 66.0267 20.739 65.7289 20.3357C65.4311 19.9324 65.0118 19.6353 64.5326 19.4879L59.7627 18.0207V18.0207ZM65.2498 23.459L60.0936 21.8728V19.1035L64.257 20.3841C64.5445 20.4725 64.7961 20.6508 64.9748 20.8928C65.1534 21.1348 65.2498 21.4277 65.2498 21.7285V23.459ZM54.9375 29.953C54.9375 29.3936 55.1597 28.857 55.5553 28.4615C55.9509 28.0659 56.4874 27.8437 57.0468 27.8437C57.6062 27.8437 58.1428 28.0659 58.5383 28.4615C58.9339 28.857 59.1562 29.3936 59.1562 29.953C59.1562 30.5124 58.9339 31.0489 58.5383 31.4445C58.1428 31.8401 57.6062 32.0623 57.0468 32.0623C56.4874 32.0623 55.9509 31.8401 55.5553 31.4445C55.1597 31.0489 54.9375 30.5124 54.9375 29.953V29.953Z" fill="#FBF7FB"/>
</svg>
