<svg width="44" height="44" viewBox="0 0 44 44" fill="none" xmlns="http://www.w3.org/2000/svg">
<path d="M25.5265 21.6326L20.5853 19.327C20.1541 19.1268 19.7999 19.3512 19.7999 19.8286V24.1714C19.7999 24.6488 20.1541 24.8732 20.5853 24.673L25.5243 22.3674C25.9577 22.165 25.9577 21.835 25.5265 21.6326ZM21.9999 0.880005C10.3355 0.880005 0.879883 10.3356 0.879883 22C0.879883 33.6644 10.3355 43.12 21.9999 43.12C33.6643 43.12 43.1199 33.6644 43.1199 22C43.1199 10.3356 33.6643 0.880005 21.9999 0.880005ZM21.9999 30.58C11.1891 30.58 10.9999 29.6054 10.9999 22C10.9999 14.3946 11.1891 13.42 21.9999 13.42C32.8107 13.42 32.9999 14.3946 32.9999 22C32.9999 29.6054 32.8107 30.58 21.9999 30.58Z" fill="#FBF7FB"/>
</svg>
