<svg width="31" height="35" viewBox="0 0 31 35" fill="none" xmlns="http://www.w3.org/2000/svg">
<path d="M29.8323 26.2918C30.6228 25.5 31.0386 24.4584 30.9972 23.3333C30.9557 22.2082 30.498 21.1666 29.6657 20.4167L28.6257 19.5001C28.1265 19.0417 27.8351 18.4168 27.8351 17.7501V12.6668C27.8351 9.66686 26.6703 6.54189 24.6734 4.16692C22.4687 1.49998 19.3068 0 15.8536 0C15.7288 0 15.604 0 15.5207 0.0418522C15.4377 0 15.3129 0 15.2296 0C11.7766 0 8.61485 1.49998 6.32662 4.16662C4.32976 6.54174 3.16488 9.62482 3.16488 12.6665V17.7498C3.16488 18.4165 2.87351 19.0833 2.37435 19.4998L1.33427 20.4164C0.502289 21.1663 0.0446575 22.2079 0.00283177 23.333C-0.0386664 24.4581 0.37719 25.4997 1.16771 26.2915C1.91642 27.0413 2.95649 27.4996 4.03839 27.4996H26.9616C28.0434 27.4999 29.0835 27.0831 29.8323 26.2918H29.8323ZM13.3159 25.8334H4.0801C3.45618 25.8334 2.83194 25.5835 2.37431 25.1251C1.91666 24.6668 1.6671 24.0419 1.6671 23.3751C1.6671 22.7084 1.95846 22.1251 2.45763 21.6668L3.4977 20.7501C4.32968 20.0003 4.82914 18.8752 4.82914 17.7501V12.6668C4.82914 5.87518 10.2376 1.66697 15.2299 1.66697C15.3547 1.66697 15.4379 1.62541 15.5212 1.62541C15.6045 1.66697 15.7293 1.66697 15.8126 1.66697C20.8049 1.66697 26.2133 5.87518 26.2133 12.6668V17.7501C26.2133 18.8752 26.7125 20 27.5448 20.7501L28.5848 21.6668C29.084 22.1251 29.3335 22.7084 29.3754 23.3751C29.3754 24.0419 29.1258 24.6667 28.6681 25.1251C28.2105 25.5835 27.6281 25.8334 26.9624 25.8334H13.3159Z" fill="#FBF7FB"/>
<path d="M19.0571 29.7917C19.0571 31.7501 17.4761 33.3335 15.5207 33.3335C13.5653 33.3335 11.9843 31.7501 11.9843 29.7917C11.9843 29.3334 11.6099 28.9585 11.1523 28.9585C10.6947 28.9585 10.3203 29.3334 10.3203 29.7917C10.3203 32.6668 12.6503 35 15.5207 35C18.3913 35 20.721 32.6668 20.721 29.7917C20.721 29.3334 20.3467 28.9585 19.889 28.9585C19.4314 28.9585 19.0571 29.3334 19.0571 29.7917Z" fill="#FBF7FB"/>
</svg>
