<svg width="33" height="32" viewBox="0 0 33 32" fill="none" xmlns="http://www.w3.org/2000/svg">
<path d="M14.9186 4.16275H4.48191C3.69106 4.16275 2.9326 4.47691 2.37338 5.03613C1.81416 5.59535 1.5 6.35381 1.5 7.14466V28.018C1.5 28.8089 1.81416 29.5674 2.37338 30.1266C2.9326 30.6858 3.69106 31 4.48191 31H25.3553C26.1461 31 26.9046 30.6858 27.4638 30.1266C28.023 29.5674 28.3372 28.8089 28.3372 28.018V17.5814" stroke="#FBF7FB" stroke-width="2" stroke-linecap="round" stroke-linejoin="round"/>
<path d="M26.1008 1.92636C26.694 1.33322 27.4984 1 28.3373 1C29.1761 1 29.9806 1.33322 30.5737 1.92636C31.1668 2.5195 31.5001 3.32397 31.5001 4.16279C31.5001 5.00162 31.1668 5.80609 30.5737 6.39923L16.4096 20.5633L10.4458 22.0543L11.9368 16.0904L26.1008 1.92636Z" stroke="#FBF7FB" stroke-width="2" stroke-linecap="round" stroke-linejoin="round"/>
</svg>
