<svg width="27" height="32" viewBox="0 0 27 32" fill="none" xmlns="http://www.w3.org/2000/svg">
<path d="M13.0576 1.09041L13.1636 1.19596L13.0576 1.09041C13.2133 0.934027 13.4244 0.847178 13.6443 0.85007L24.3498 0.850021C25.5359 0.850021 26.5074 1.84394 26.5074 3.04536V28.9546C26.5074 30.156 25.5359 31.1499 24.3498 31.1499H13.6443C13.4244 31.1528 13.2134 31.066 13.0576 30.9096C12.9016 30.7529 12.8146 30.54 12.8146 30.3182C12.8146 30.0966 12.9016 29.8834 13.0576 29.7267C13.2134 29.5703 13.4244 29.4835 13.6443 29.4864H24.3498C24.6466 29.4864 24.8689 29.2639 24.8689 28.9546V3.04539C24.8689 2.73606 24.6466 2.51363 24.3498 2.51363H13.6443C13.4244 2.51653 13.2133 2.42967 13.0576 2.27329L13.1639 2.16744L13.0576 2.27329C12.9016 2.11663 12.8146 1.90339 12.8146 1.68185C12.8146 1.46005 12.9016 1.24705 13.0576 1.09041Z" fill="#FBF7FB" stroke="#FBF7FB" stroke-width="0.3"/>
<path d="M16.2862 16.5514L10.4538 22.7008C10.2805 22.8512 10.1769 23.0696 10.165 23.3017L10.165 23.3019C10.1532 23.5369 10.2361 23.768 10.3966 23.9372C10.557 24.1064 10.7803 24.1976 11.0111 24.1845C11.0111 24.1845 11.0112 24.1845 11.0113 24.1845L16.2862 16.5514ZM16.2862 16.5514H1.86746C1.65312 16.561 1.44512 16.4807 1.28878 16.3308L1.28868 16.3307C1.13166 16.1799 1.03943 15.9713 1.02956 15.7511L1.02955 15.7509C1.01994 15.531 1.09333 15.3145 1.2357 15.1495L1.23588 15.1493C1.37864 14.9844 1.5795 14.8835 1.79554 14.8731L1.79571 14.8731C1.81949 14.8719 1.84348 14.8719 1.86728 14.8729H16.2862L10.4497 8.71915C10.225 8.49178 10.1481 8.15054 10.2484 7.84442L16.2862 16.5514ZM11.5909 23.8766L18.7771 16.2997L18.7777 16.2991C19.0838 15.9728 19.0838 15.4507 18.7777 15.1245L18.7771 15.1239L11.587 7.54292C11.4382 7.37786 11.2307 7.28193 11.011 7.27931C10.9869 7.27826 10.9627 7.27831 10.9386 7.27945L10.7944 7.28628L10.7946 7.30706C10.5393 7.38063 10.3344 7.58196 10.2484 7.84438L11.5909 23.8766Z" fill="#FBF7FB" stroke="#FBF7FB" stroke-width="0.3"/>
</svg>
