<svg width="32" height="32" viewBox="0 0 32 32" fill="none" xmlns="http://www.w3.org/2000/svg">
<path d="M22.3993 10.9674C22.4823 11.4711 22.5104 11.9909 22.5177 12.5087L22.5177 12.5142C22.4968 16.6192 19.9059 20.4436 16.0284 21.8527L16.0283 21.8527C12.0571 23.2974 7.57575 22.0828 4.87427 18.8443L4.87403 18.844C2.19587 15.6499 1.88089 10.9453 4.02332 7.38608C6.15898 3.84078 10.4172 1.92179 14.4841 2.74483C18.553 3.56829 21.7294 6.87007 22.3993 10.9672L22.3993 10.9674ZM24.2419 12.5143C24.2415 12.4725 24.2386 12.4321 24.2334 12.3931C24.1614 7.56191 21.0823 3.22257 16.5498 1.54338L16.5496 1.54331C11.9985 -0.136378 6.65332 1.31259 3.58113 5.06004C0.460272 8.86253 0.00744832 14.3371 2.57024 18.5579C5.11836 22.7567 10.119 24.9157 14.9265 23.9472L14.9266 23.9472C19.585 23.0069 23.3592 19.0972 24.0842 14.3944L24.0843 14.3937C24.1773 13.7719 24.2346 13.1486 24.2419 12.5172L24.2419 12.5143Z" fill="#FBF7FB" stroke="#FBF7FB" stroke-width="0.3"/>
<path d="M19.7073 20.803L19.7073 20.8031L29.802 30.8978C29.9933 31.089 30.2196 31.1642 30.4389 31.1478C30.6543 31.1317 30.8525 31.0285 30.9996 30.882C31.1466 30.7354 31.2504 30.5377 31.2661 30.3224C31.2822 30.103 31.2056 29.8773 31.0127 29.6864C31.0127 29.6863 31.0126 29.6862 31.0125 29.6861L27.6126 26.2863L22.1649 20.8386L20.9188 19.5925C20.9187 19.5924 20.9186 19.5923 20.9185 19.5922C20.7276 19.3994 20.5019 19.3229 20.2826 19.3389C20.0673 19.3547 19.8695 19.4584 19.723 19.6055C19.5765 19.7525 19.4733 19.9507 19.4572 20.166C19.4408 20.3854 19.5159 20.6116 19.7072 20.8029L19.7073 20.803Z" fill="#FBF7FB" stroke="#FBF7FB" stroke-width="0.3"/>
</svg>
