<svg width="30" height="30" viewBox="0 0 30 30" fill="none" xmlns="http://www.w3.org/2000/svg">
<path fill-rule="evenodd" clip-rule="evenodd" d="M8.26125 2.51625C10.1353 0.900253 12.5255 0.00775972 15 0C20.0438 0 24.2306 3.75 24.6863 8.58562C27.6713 9.0075 30 11.5069 30 14.5744C30 17.9419 27.1912 20.625 23.7881 20.625H18.75C18.5014 20.625 18.2629 20.5262 18.0871 20.3504C17.9113 20.1746 17.8125 19.9361 17.8125 19.6875C17.8125 19.4389 17.9113 19.2004 18.0871 19.0246C18.2629 18.8488 18.5014 18.75 18.75 18.75H23.79C26.2106 18.75 28.125 16.8525 28.125 14.5744C28.125 12.2944 26.2125 10.3969 23.7881 10.3969H22.8506V9.45938C22.8525 5.29688 19.365 1.875 15 1.875C12.9748 1.88309 11.0191 2.61456 9.48563 3.9375C8.06625 5.16 7.32375 6.63375 7.32375 7.79063V8.63063L6.48938 8.7225C3.87 9.00937 1.875 11.16 1.875 13.7212C1.875 16.4719 4.18125 18.75 7.08938 18.75H11.25C11.4986 18.75 11.7371 18.8488 11.9129 19.0246C12.0887 19.2004 12.1875 19.4389 12.1875 19.6875C12.1875 19.9361 12.0887 20.1746 11.9129 20.3504C11.7371 20.5262 11.4986 20.625 11.25 20.625H7.08938C3.2025 20.625 0 17.5613 0 13.7212C0 10.4156 2.37375 7.67812 5.51625 6.98438C5.78437 5.36625 6.825 3.75375 8.26125 2.51625Z" fill="#FBF7FB"/>
<path fill-rule="evenodd" clip-rule="evenodd" d="M14.3365 7.77378C14.4235 7.68647 14.527 7.6172 14.6409 7.56994C14.7548 7.52268 14.8769 7.49835 15.0002 7.49835C15.1235 7.49835 15.2456 7.52268 15.3595 7.56994C15.4734 7.6172 15.5769 7.68647 15.664 7.77378L21.289 13.3988C21.465 13.5748 21.5639 13.8136 21.5639 14.0625C21.5639 14.3115 21.465 14.5502 21.289 14.7263C21.1129 14.9023 20.8742 15.0012 20.6252 15.0012C20.3763 15.0012 20.1375 14.9023 19.9615 14.7263L15.9377 10.7007V27.1875C15.9377 27.4362 15.8389 27.6746 15.6631 27.8504C15.4873 28.0263 15.2488 28.125 15.0002 28.125C14.7516 28.125 14.5131 28.0263 14.3373 27.8504C14.1615 27.6746 14.0627 27.4362 14.0627 27.1875V10.7007L10.039 14.7263C9.86292 14.9023 9.62416 15.0012 9.37521 15.0012C9.12625 15.0012 8.8875 14.9023 8.71146 14.7263C8.53542 14.5502 8.43652 14.3115 8.43652 14.0625C8.43652 13.8136 8.53542 13.5748 8.71146 13.3988L14.3365 7.77378Z" fill="#FBF7FB"/>
</svg>
