<svg width="24" height="30" viewBox="0 0 24 30" fill="none" xmlns="http://www.w3.org/2000/svg">
<path fill-rule="evenodd" clip-rule="evenodd" d="M18.9167 4.96718C20.7251 6.77557 21.7411 9.22827 21.7411 11.7857C21.7411 15.7414 18.5761 20.8971 12.0982 27.0729C5.62036 20.8971 2.45536 15.7414 2.45536 11.7857C2.45536 9.22827 3.4713 6.77557 5.27968 4.96718C7.08807 3.1588 9.54077 2.14286 12.0982 2.14286C14.6557 2.14286 17.1084 3.1588 18.9167 4.96718ZM0.3125 11.7857C0.3125 16.785 4.24036 22.8579 12.0982 30C19.9561 22.8579 23.8839 16.785 23.8839 11.7857C23.8839 8.65995 22.6422 5.66221 20.432 3.45196C18.2217 1.24171 15.224 0 12.0982 0C8.97245 0 5.97471 1.24171 3.76446 3.45196C1.55421 5.66221 0.3125 8.65995 0.3125 11.7857ZM14.3711 14.0586C13.7683 14.6614 12.9507 15 12.0982 15C11.2457 15 10.4282 14.6614 9.82537 14.0586C9.22258 13.4558 8.88393 12.6382 8.88393 11.7857C8.88393 10.9332 9.22258 10.1157 9.82537 9.51287C10.4282 8.91008 11.2457 8.57143 12.0982 8.57143C12.9507 8.57143 13.7683 8.91008 14.3711 9.51287C14.9739 10.1157 15.3125 10.9332 15.3125 11.7857C15.3125 12.6382 14.9739 13.4558 14.3711 14.0586ZM8.31014 15.5738C9.3148 16.5784 10.6774 17.1429 12.0982 17.1429C13.519 17.1429 14.8816 16.5784 15.8863 15.5738C16.8909 14.5691 17.4554 13.2065 17.4554 11.7857C17.4554 10.3649 16.8909 9.0023 15.8863 7.99764C14.8816 6.99298 13.519 6.42857 12.0982 6.42857C10.6774 6.42857 9.3148 6.99298 8.31014 7.99764C7.30548 9.0023 6.74107 10.3649 6.74107 11.7857C6.74107 13.2065 7.30548 14.5691 8.31014 15.5738Z" fill="#FBF7FB"/>
</svg>
