<svg width="32" height="32" viewBox="0 0 32 32" fill="none" xmlns="http://www.w3.org/2000/svg">
<mask id="path-1-outside-1_636_13522" maskUnits="userSpaceOnUse" x="0.000488281" y="0" width="32" height="32" fill="black">
<rect fill="white" x="0.000488281" width="32" height="32"/>
<path d="M29.3643 13.3086L27.1234 12.5838C26.9108 11.8808 26.6298 11.2005 26.2845 10.5527L27.353 8.45771C27.5867 8.04797 27.6844 7.57499 27.6324 7.10629C27.5803 6.63735 27.3808 6.19739 27.0628 5.84905L26.1489 4.93517H26.1487C25.801 4.61818 25.3618 4.41961 24.8941 4.36777C24.4266 4.31593 23.9545 4.41343 23.5455 4.64624L21.4484 5.7206C20.8008 5.37293 20.1203 5.09064 19.4168 4.87806L18.6937 2.63631C18.5691 2.18188 18.3037 1.77855 17.9353 1.48464C17.567 1.19048 17.1149 1.02092 16.6443 1H15.3528C14.8827 1.02164 14.4315 1.19167 14.0641 1.48559C13.6967 1.77952 13.4318 2.18233 13.3074 2.6363L12.5824 4.87731H12.5822C11.8787 5.0899 11.1982 5.37217 10.5504 5.71936L8.45437 4.64762C8.04511 4.41505 7.57287 4.31779 7.10484 4.36987C6.63709 4.42171 6.19765 4.62051 5.84949 4.9375L4.93682 5.85017V5.84993C4.61888 6.19831 4.41937 6.63823 4.36729 7.10692C4.31521 7.57562 4.41294 8.04888 4.6467 8.45834L5.71729 10.5498C5.36986 11.1997 5.08733 11.8824 4.8745 12.5882L2.6344 13.3068C2.1802 13.4315 1.77737 13.6971 1.4837 14.0654C1.19002 14.4338 1.02094 14.8859 1.00049 15.3562V16.6477C1.02118 17.1181 1.19049 17.5697 1.48418 17.9378C1.77762 18.3057 2.18049 18.571 2.63445 18.6959L4.87455 19.4172C5.08762 20.1225 5.36989 20.805 5.71734 21.4547L4.64821 23.5461C4.41493 23.9551 4.31719 24.4276 4.36927 24.8956C4.42135 25.3639 4.62063 25.8033 4.93833 26.151L5.851 27.0636C6.19891 27.3806 6.63815 27.5799 7.10587 27.6327C7.57362 27.6853 8.04612 27.5889 8.45588 27.3571L10.5507 26.2832C11.1994 26.6306 11.881 26.9126 12.5853 27.1257L13.3066 29.3663L13.3068 29.366C13.4314 29.8198 13.6963 30.2223 14.064 30.5158C14.4317 30.8095 14.883 30.9791 15.3529 31H16.6437C17.1143 30.9798 17.5666 30.8107 17.9349 30.517C18.3035 30.2231 18.5692 29.82 18.6938 29.3658L19.4148 27.1257H19.4151C20.1194 26.9129 20.801 26.6306 21.4494 26.2832L23.5492 27.3574C23.9585 27.5899 24.431 27.6865 24.899 27.6337C25.3668 27.5809 25.8058 27.3814 26.1532 27.0637L27.0659 26.151H27.0656C27.3833 25.8034 27.5826 25.3641 27.6347 24.8962C27.687 24.4282 27.5895 23.9559 27.3562 23.5469L26.2837 21.4511C26.629 20.8031 26.9101 20.123 27.1227 19.4201L29.3621 18.6957V18.6955C29.817 18.5719 30.2206 18.3067 30.5151 17.9388C30.8095 17.5707 30.9798 17.1186 31.0007 16.6478V15.3563C30.9798 14.8857 30.8103 14.4339 30.5161 14.066C30.2222 13.6979 29.8189 13.4327 29.3644 13.3086L29.3643 13.3086ZM29.978 16.6478C29.9554 16.9018 29.8537 17.1425 29.6867 17.3353C29.5198 17.5284 29.2965 17.6637 29.0482 17.7227L26.2869 18.6161L26.2139 18.8827V18.8829C25.9916 19.6888 25.671 20.4645 25.2594 21.1925L25.1231 21.4313L26.4424 24.0131V24.0128C26.578 24.229 26.6412 24.4827 26.6227 24.7371C26.6044 24.9916 26.5054 25.2337 26.3402 25.428L25.4275 26.3406C25.2323 26.504 24.9907 26.602 24.7369 26.6213C24.4829 26.6403 24.2294 26.5794 24.0121 26.4469L21.4262 25.1238L21.1875 25.2601V25.2603C20.4596 25.6739 19.6831 25.9954 18.8758 26.2173L18.6083 26.2903L17.7187 29.0526C17.6613 29.3011 17.526 29.5246 17.3329 29.6911C17.1396 29.8573 16.8985 29.9576 16.6443 29.9776H15.3528C15.0993 29.9555 14.8591 29.8542 14.6663 29.6882C14.4734 29.5224 14.3376 29.2999 14.2779 29.0526L13.3881 26.2891L13.1208 26.2161V26.2163C12.3135 25.9942 11.5368 25.6727 10.8085 25.2594L10.5697 25.1231L7.98905 26.4462C7.77218 26.5808 7.51796 26.6431 7.26327 26.6241C7.00882 26.6051 6.76674 26.5059 6.57201 26.3406L5.65934 25.428C5.49407 25.2337 5.39514 24.9916 5.37683 24.7369C5.35828 24.4824 5.42154 24.2287 5.55708 24.0126L6.87666 21.4343L6.7404 21.1955C6.32686 20.4664 6.00537 19.6886 5.78347 18.8801L5.71046 18.6128L2.94694 17.7229C2.69987 17.6632 2.47776 17.5272 2.31199 17.3341C2.14624 17.1413 2.04518 16.9011 2.02306 16.6479V15.3564C2.04304 15.1021 2.14339 14.861 2.30961 14.6677C2.47607 14.4746 2.6996 14.3393 2.94809 14.282L5.71161 13.3922L5.78462 13.1249H5.78438C6.00625 12.3164 6.32776 11.5385 6.74131 10.8092L6.87757 10.5704L5.558 7.99213C5.42459 7.77454 5.36253 7.52081 5.38083 7.26611C5.39914 7.01166 5.49688 6.76934 5.66025 6.57314L6.57152 5.66187C6.76723 5.49874 7.00907 5.40076 7.26302 5.38198C7.51723 5.36343 7.77073 5.42478 7.98807 5.55747L10.5706 6.88155L10.8094 6.74529H10.8091C11.5359 6.33175 12.3113 6.0105 13.1175 5.7886L13.3838 5.7156L14.2777 2.95427C14.3365 2.70577 14.472 2.48223 14.6649 2.31506C14.858 2.14765 15.0986 2.04539 15.3528 2.02256H16.6436C16.8976 2.04539 17.1378 2.14741 17.3306 2.31411C17.5235 2.48081 17.6593 2.7041 17.7185 2.95192L18.6119 5.71325L18.8782 5.78625C19.6841 6.00788 20.4594 6.3294 21.1859 6.74294L21.4246 6.8792L24.0124 5.55464V5.55487C24.2293 5.42194 24.4823 5.36035 24.7358 5.37866C24.9895 5.39697 25.2311 5.49423 25.4266 5.65713L26.3393 6.5698H26.3391C26.5027 6.76599 26.6004 7.0083 26.6187 7.26301C26.637 7.51769 26.5752 7.77167 26.4413 7.98927L25.1248 10.5728L25.2611 10.8115C25.6727 11.5394 25.9933 12.3151 26.2157 13.1211L26.2887 13.3874L29.05 14.2809C29.2992 14.3379 29.5235 14.4733 29.6904 14.6666C29.8574 14.8602 29.9582 15.1018 29.9782 15.3564L29.978 16.6478Z"/>
</mask>
<path d="M29.3643 13.3086L27.1234 12.5838C26.9108 11.8808 26.6298 11.2005 26.2845 10.5527L27.353 8.45771C27.5867 8.04797 27.6844 7.57499 27.6324 7.10629C27.5803 6.63735 27.3808 6.19739 27.0628 5.84905L26.1489 4.93517H26.1487C25.801 4.61818 25.3618 4.41961 24.8941 4.36777C24.4266 4.31593 23.9545 4.41343 23.5455 4.64624L21.4484 5.7206C20.8008 5.37293 20.1203 5.09064 19.4168 4.87806L18.6937 2.63631C18.5691 2.18188 18.3037 1.77855 17.9353 1.48464C17.567 1.19048 17.1149 1.02092 16.6443 1H15.3528C14.8827 1.02164 14.4315 1.19167 14.0641 1.48559C13.6967 1.77952 13.4318 2.18233 13.3074 2.6363L12.5824 4.87731H12.5822C11.8787 5.0899 11.1982 5.37217 10.5504 5.71936L8.45437 4.64762C8.04511 4.41505 7.57287 4.31779 7.10484 4.36987C6.63709 4.42171 6.19765 4.62051 5.84949 4.9375L4.93682 5.85017V5.84993C4.61888 6.19831 4.41937 6.63823 4.36729 7.10692C4.31521 7.57562 4.41294 8.04888 4.6467 8.45834L5.71729 10.5498C5.36986 11.1997 5.08733 11.8824 4.8745 12.5882L2.6344 13.3068C2.1802 13.4315 1.77737 13.6971 1.4837 14.0654C1.19002 14.4338 1.02094 14.8859 1.00049 15.3562V16.6477C1.02118 17.1181 1.19049 17.5697 1.48418 17.9378C1.77762 18.3057 2.18049 18.571 2.63445 18.6959L4.87455 19.4172C5.08762 20.1225 5.36989 20.805 5.71734 21.4547L4.64821 23.5461C4.41493 23.9551 4.31719 24.4276 4.36927 24.8956C4.42135 25.3639 4.62063 25.8033 4.93833 26.151L5.851 27.0636C6.19891 27.3806 6.63815 27.5799 7.10587 27.6327C7.57362 27.6853 8.04612 27.5889 8.45588 27.3571L10.5507 26.2832C11.1994 26.6306 11.881 26.9126 12.5853 27.1257L13.3066 29.3663L13.3068 29.366C13.4314 29.8198 13.6963 30.2223 14.064 30.5158C14.4317 30.8095 14.883 30.9791 15.3529 31H16.6437C17.1143 30.9798 17.5666 30.8107 17.9349 30.517C18.3035 30.2231 18.5692 29.82 18.6938 29.3658L19.4148 27.1257H19.4151C20.1194 26.9129 20.801 26.6306 21.4494 26.2832L23.5492 27.3574C23.9585 27.5899 24.431 27.6865 24.899 27.6337C25.3668 27.5809 25.8058 27.3814 26.1532 27.0637L27.0659 26.151H27.0656C27.3833 25.8034 27.5826 25.3641 27.6347 24.8962C27.687 24.4282 27.5895 23.9559 27.3562 23.5469L26.2837 21.4511C26.629 20.8031 26.9101 20.123 27.1227 19.4201L29.3621 18.6957V18.6955C29.817 18.5719 30.2206 18.3067 30.5151 17.9388C30.8095 17.5707 30.9798 17.1186 31.0007 16.6478V15.3563C30.9798 14.8857 30.8103 14.4339 30.5161 14.066C30.2222 13.6979 29.8189 13.4327 29.3644 13.3086L29.3643 13.3086ZM29.978 16.6478C29.9554 16.9018 29.8537 17.1425 29.6867 17.3353C29.5198 17.5284 29.2965 17.6637 29.0482 17.7227L26.2869 18.6161L26.2139 18.8827V18.8829C25.9916 19.6888 25.671 20.4645 25.2594 21.1925L25.1231 21.4313L26.4424 24.0131V24.0128C26.578 24.229 26.6412 24.4827 26.6227 24.7371C26.6044 24.9916 26.5054 25.2337 26.3402 25.428L25.4275 26.3406C25.2323 26.504 24.9907 26.602 24.7369 26.6213C24.4829 26.6403 24.2294 26.5794 24.0121 26.4469L21.4262 25.1238L21.1875 25.2601V25.2603C20.4596 25.6739 19.6831 25.9954 18.8758 26.2173L18.6083 26.2903L17.7187 29.0526C17.6613 29.3011 17.526 29.5246 17.3329 29.6911C17.1396 29.8573 16.8985 29.9576 16.6443 29.9776H15.3528C15.0993 29.9555 14.8591 29.8542 14.6663 29.6882C14.4734 29.5224 14.3376 29.2999 14.2779 29.0526L13.3881 26.2891L13.1208 26.2161V26.2163C12.3135 25.9942 11.5368 25.6727 10.8085 25.2594L10.5697 25.1231L7.98905 26.4462C7.77218 26.5808 7.51796 26.6431 7.26327 26.6241C7.00882 26.6051 6.76674 26.5059 6.57201 26.3406L5.65934 25.428C5.49407 25.2337 5.39514 24.9916 5.37683 24.7369C5.35828 24.4824 5.42154 24.2287 5.55708 24.0126L6.87666 21.4343L6.7404 21.1955C6.32686 20.4664 6.00537 19.6886 5.78347 18.8801L5.71046 18.6128L2.94694 17.7229C2.69987 17.6632 2.47776 17.5272 2.31199 17.3341C2.14624 17.1413 2.04518 16.9011 2.02306 16.6479V15.3564C2.04304 15.1021 2.14339 14.861 2.30961 14.6677C2.47607 14.4746 2.6996 14.3393 2.94809 14.282L5.71161 13.3922L5.78462 13.1249H5.78438C6.00625 12.3164 6.32776 11.5385 6.74131 10.8092L6.87757 10.5704L5.558 7.99213C5.42459 7.77454 5.36253 7.52081 5.38083 7.26611C5.39914 7.01166 5.49688 6.76934 5.66025 6.57314L6.57152 5.66187C6.76723 5.49874 7.00907 5.40076 7.26302 5.38198C7.51723 5.36343 7.77073 5.42478 7.98807 5.55747L10.5706 6.88155L10.8094 6.74529H10.8091C11.5359 6.33175 12.3113 6.0105 13.1175 5.7886L13.3838 5.7156L14.2777 2.95427C14.3365 2.70577 14.472 2.48223 14.6649 2.31506C14.858 2.14765 15.0986 2.04539 15.3528 2.02256H16.6436C16.8976 2.04539 17.1378 2.14741 17.3306 2.31411C17.5235 2.48081 17.6593 2.7041 17.7185 2.95192L18.6119 5.71325L18.8782 5.78625C19.6841 6.00788 20.4594 6.3294 21.1859 6.74294L21.4246 6.8792L24.0124 5.55464V5.55487C24.2293 5.42194 24.4823 5.36035 24.7358 5.37866C24.9895 5.39697 25.2311 5.49423 25.4266 5.65713L26.3393 6.5698H26.3391C26.5027 6.76599 26.6004 7.0083 26.6187 7.26301C26.637 7.51769 26.5752 7.77167 26.4413 7.98927L25.1248 10.5728L25.2611 10.8115C25.6727 11.5394 25.9933 12.3151 26.2157 13.1211L26.2887 13.3874L29.05 14.2809C29.2992 14.3379 29.5235 14.4733 29.6904 14.6666C29.8574 14.8602 29.9582 15.1018 29.9782 15.3564L29.978 16.6478Z" fill="#FBF7FB"/>
<path d="M29.3643 13.3086L27.1234 12.5838C26.9108 11.8808 26.6298 11.2005 26.2845 10.5527L27.353 8.45771C27.5867 8.04797 27.6844 7.57499 27.6324 7.10629C27.5803 6.63735 27.3808 6.19739 27.0628 5.84905L26.1489 4.93517H26.1487C25.801 4.61818 25.3618 4.41961 24.8941 4.36777C24.4266 4.31593 23.9545 4.41343 23.5455 4.64624L21.4484 5.7206C20.8008 5.37293 20.1203 5.09064 19.4168 4.87806L18.6937 2.63631C18.5691 2.18188 18.3037 1.77855 17.9353 1.48464C17.567 1.19048 17.1149 1.02092 16.6443 1H15.3528C14.8827 1.02164 14.4315 1.19167 14.0641 1.48559C13.6967 1.77952 13.4318 2.18233 13.3074 2.6363L12.5824 4.87731H12.5822C11.8787 5.0899 11.1982 5.37217 10.5504 5.71936L8.45437 4.64762C8.04511 4.41505 7.57287 4.31779 7.10484 4.36987C6.63709 4.42171 6.19765 4.62051 5.84949 4.9375L4.93682 5.85017V5.84993C4.61888 6.19831 4.41937 6.63823 4.36729 7.10692C4.31521 7.57562 4.41294 8.04888 4.6467 8.45834L5.71729 10.5498C5.36986 11.1997 5.08733 11.8824 4.8745 12.5882L2.6344 13.3068C2.1802 13.4315 1.77737 13.6971 1.4837 14.0654C1.19002 14.4338 1.02094 14.8859 1.00049 15.3562V16.6477C1.02118 17.1181 1.19049 17.5697 1.48418 17.9378C1.77762 18.3057 2.18049 18.571 2.63445 18.6959L4.87455 19.4172C5.08762 20.1225 5.36989 20.805 5.71734 21.4547L4.64821 23.5461C4.41493 23.9551 4.31719 24.4276 4.36927 24.8956C4.42135 25.3639 4.62063 25.8033 4.93833 26.151L5.851 27.0636C6.19891 27.3806 6.63815 27.5799 7.10587 27.6327C7.57362 27.6853 8.04612 27.5889 8.45588 27.3571L10.5507 26.2832C11.1994 26.6306 11.881 26.9126 12.5853 27.1257L13.3066 29.3663L13.3068 29.366C13.4314 29.8198 13.6963 30.2223 14.064 30.5158C14.4317 30.8095 14.883 30.9791 15.3529 31H16.6437C17.1143 30.9798 17.5666 30.8107 17.9349 30.517C18.3035 30.2231 18.5692 29.82 18.6938 29.3658L19.4148 27.1257H19.4151C20.1194 26.9129 20.801 26.6306 21.4494 26.2832L23.5492 27.3574C23.9585 27.5899 24.431 27.6865 24.899 27.6337C25.3668 27.5809 25.8058 27.3814 26.1532 27.0637L27.0659 26.151H27.0656C27.3833 25.8034 27.5826 25.3641 27.6347 24.8962C27.687 24.4282 27.5895 23.9559 27.3562 23.5469L26.2837 21.4511C26.629 20.8031 26.9101 20.123 27.1227 19.4201L29.3621 18.6957V18.6955C29.817 18.5719 30.2206 18.3067 30.5151 17.9388C30.8095 17.5707 30.9798 17.1186 31.0007 16.6478V15.3563C30.9798 14.8857 30.8103 14.4339 30.5161 14.066C30.2222 13.6979 29.8189 13.4327 29.3644 13.3086L29.3643 13.3086ZM29.978 16.6478C29.9554 16.9018 29.8537 17.1425 29.6867 17.3353C29.5198 17.5284 29.2965 17.6637 29.0482 17.7227L26.2869 18.6161L26.2139 18.8827V18.8829C25.9916 19.6888 25.671 20.4645 25.2594 21.1925L25.1231 21.4313L26.4424 24.0131V24.0128C26.578 24.229 26.6412 24.4827 26.6227 24.7371C26.6044 24.9916 26.5054 25.2337 26.3402 25.428L25.4275 26.3406C25.2323 26.504 24.9907 26.602 24.7369 26.6213C24.4829 26.6403 24.2294 26.5794 24.0121 26.4469L21.4262 25.1238L21.1875 25.2601V25.2603C20.4596 25.6739 19.6831 25.9954 18.8758 26.2173L18.6083 26.2903L17.7187 29.0526C17.6613 29.3011 17.526 29.5246 17.3329 29.6911C17.1396 29.8573 16.8985 29.9576 16.6443 29.9776H15.3528C15.0993 29.9555 14.8591 29.8542 14.6663 29.6882C14.4734 29.5224 14.3376 29.2999 14.2779 29.0526L13.3881 26.2891L13.1208 26.2161V26.2163C12.3135 25.9942 11.5368 25.6727 10.8085 25.2594L10.5697 25.1231L7.98905 26.4462C7.77218 26.5808 7.51796 26.6431 7.26327 26.6241C7.00882 26.6051 6.76674 26.5059 6.57201 26.3406L5.65934 25.428C5.49407 25.2337 5.39514 24.9916 5.37683 24.7369C5.35828 24.4824 5.42154 24.2287 5.55708 24.0126L6.87666 21.4343L6.7404 21.1955C6.32686 20.4664 6.00537 19.6886 5.78347 18.8801L5.71046 18.6128L2.94694 17.7229C2.69987 17.6632 2.47776 17.5272 2.31199 17.3341C2.14624 17.1413 2.04518 16.9011 2.02306 16.6479V15.3564C2.04304 15.1021 2.14339 14.861 2.30961 14.6677C2.47607 14.4746 2.6996 14.3393 2.94809 14.282L5.71161 13.3922L5.78462 13.1249H5.78438C6.00625 12.3164 6.32776 11.5385 6.74131 10.8092L6.87757 10.5704L5.558 7.99213C5.42459 7.77454 5.36253 7.52081 5.38083 7.26611C5.39914 7.01166 5.49688 6.76934 5.66025 6.57314L6.57152 5.66187C6.76723 5.49874 7.00907 5.40076 7.26302 5.38198C7.51723 5.36343 7.77073 5.42478 7.98807 5.55747L10.5706 6.88155L10.8094 6.74529H10.8091C11.5359 6.33175 12.3113 6.0105 13.1175 5.7886L13.3838 5.7156L14.2777 2.95427C14.3365 2.70577 14.472 2.48223 14.6649 2.31506C14.858 2.14765 15.0986 2.04539 15.3528 2.02256H16.6436C16.8976 2.04539 17.1378 2.14741 17.3306 2.31411C17.5235 2.48081 17.6593 2.7041 17.7185 2.95192L18.6119 5.71325L18.8782 5.78625C19.6841 6.00788 20.4594 6.3294 21.1859 6.74294L21.4246 6.8792L24.0124 5.55464V5.55487C24.2293 5.42194 24.4823 5.36035 24.7358 5.37866C24.9895 5.39697 25.2311 5.49423 25.4266 5.65713L26.3393 6.5698H26.3391C26.5027 6.76599 26.6004 7.0083 26.6187 7.26301C26.637 7.51769 26.5752 7.77167 26.4413 7.98927L25.1248 10.5728L25.2611 10.8115C25.6727 11.5394 25.9933 12.3151 26.2157 13.1211L26.2887 13.3874L29.05 14.2809C29.2992 14.3379 29.5235 14.4733 29.6904 14.6666C29.8574 14.8602 29.9582 15.1018 29.9782 15.3564L29.978 16.6478Z" stroke="#FBF7FB" stroke-width="0.6" mask="url(#path-1-outside-1_636_13522)"/>
<mask id="path-2-outside-2_636_13522" maskUnits="userSpaceOnUse" x="8.92334" y="8.92743" width="14" height="14" fill="black">
<rect fill="white" x="8.92334" y="8.92743" width="14" height="14"/>
<path d="M15.998 9.92743C14.3869 9.92743 12.8419 10.5676 11.7026 11.7069C10.5633 12.8459 9.92334 14.3912 9.92334 16.0023C9.92334 17.6134 10.5635 19.1587 11.7028 20.2977C12.8421 21.4371 14.3871 22.077 15.9982 22.077C17.6093 22.077 19.1546 21.4368 20.2938 20.2976C21.4329 19.1582 22.0729 17.613 22.0729 16.0019C22.071 14.3916 21.4303 12.8475 20.2915 11.7087C19.1526 10.5699 17.6086 9.92926 15.998 9.92755L15.998 9.92743ZM16.5138 21.0278V21.028C16.1709 21.0625 15.8254 21.0625 15.4823 21.028C13.748 20.8499 12.228 19.7903 11.461 18.2243C10.6941 16.6586 10.789 14.8081 11.7117 13.3287C12.6343 11.8493 14.2547 10.9505 15.998 10.9505C17.7416 10.9505 19.362 11.8494 20.2846 13.3287C21.2073 14.8081 21.302 16.6586 20.5353 18.2243C19.7684 19.7903 18.2484 20.8499 16.5138 21.028L16.5138 21.0278Z"/>
</mask>
<path d="M15.998 9.92743C14.3869 9.92743 12.8419 10.5676 11.7026 11.7069C10.5633 12.8459 9.92334 14.3912 9.92334 16.0023C9.92334 17.6134 10.5635 19.1587 11.7028 20.2977C12.8421 21.4371 14.3871 22.077 15.9982 22.077C17.6093 22.077 19.1546 21.4368 20.2938 20.2976C21.4329 19.1582 22.0729 17.613 22.0729 16.0019C22.071 14.3916 21.4303 12.8475 20.2915 11.7087C19.1526 10.5699 17.6086 9.92926 15.998 9.92755L15.998 9.92743ZM16.5138 21.0278V21.028C16.1709 21.0625 15.8254 21.0625 15.4823 21.028C13.748 20.8499 12.228 19.7903 11.461 18.2243C10.6941 16.6586 10.789 14.8081 11.7117 13.3287C12.6343 11.8493 14.2547 10.9505 15.998 10.9505C17.7416 10.9505 19.362 11.8494 20.2846 13.3287C21.2073 14.8081 21.302 16.6586 20.5353 18.2243C19.7684 19.7903 18.2484 20.8499 16.5138 21.028L16.5138 21.0278Z" fill="#FBF7FB"/>
<path d="M15.998 9.92743L16.2676 10.0591L16.4785 9.62743H15.998V9.92743ZM11.7026 11.7069L11.9147 11.919L11.9147 11.919L11.7026 11.7069ZM11.7028 20.2977L11.9149 20.0856L11.9149 20.0856L11.7028 20.2977ZM20.2938 20.2976L20.506 20.5097L20.506 20.5097L20.2938 20.2976ZM22.0729 16.0019H22.3729L22.3729 16.0016L22.0729 16.0019ZM15.998 9.92755L15.7284 9.79586L15.5178 10.227L15.9977 10.2276L15.998 9.92755ZM16.5138 21.0278H16.8138L16.2174 20.9815L16.5138 21.0278ZM16.5138 21.028L16.5438 21.3265L16.8138 21.2994V21.028H16.5138ZM15.4823 21.028L15.4516 21.3265L15.4523 21.3265L15.4823 21.028ZM11.461 18.2243L11.7304 18.0924L11.7304 18.0924L11.461 18.2243ZM11.7117 13.3287L11.9662 13.4875L11.9662 13.4875L11.7117 13.3287ZM20.2846 13.3287L20.5392 13.1699L20.5392 13.1699L20.2846 13.3287ZM20.5353 18.2243L20.8047 18.3563L20.8047 18.3563L20.5353 18.2243ZM16.5138 21.028L16.2174 20.9817L16.1573 21.3662L16.5444 21.3265L16.5138 21.028ZM15.998 9.62743C14.3073 9.62743 12.686 10.2992 11.4905 11.4947L11.9147 11.919C12.9978 10.836 14.4665 10.2274 15.998 10.2274V9.62743ZM11.4905 11.4947C10.2949 12.6901 9.62334 14.3116 9.62334 16.0023H10.2233C10.2233 14.4707 10.8317 13.0018 11.9147 11.919L11.4905 11.4947ZM9.62334 16.0023C9.62334 17.693 10.2951 19.3146 11.4907 20.5099L11.9149 20.0856C10.8319 19.0028 10.2233 17.5338 10.2233 16.0023H9.62334ZM11.4906 20.5099C12.6862 21.7055 14.3075 22.377 15.9982 22.377V21.777C14.4667 21.777 12.998 21.1687 11.9149 20.0856L11.4906 20.5099ZM15.9982 22.377C17.6889 22.377 19.3105 21.7052 20.506 20.5097L20.0817 20.0854C18.9987 21.1684 17.5298 21.777 15.9982 21.777V22.377ZM20.506 20.5097C21.7013 19.3141 22.3729 17.6925 22.3729 16.0019H21.7729C21.7729 17.5334 21.1645 19.0024 20.0817 20.0855L20.506 20.5097ZM22.3729 16.0016C22.3709 14.3118 21.6986 12.6916 20.5036 11.4966L20.0793 11.9208C21.162 13.0035 21.771 14.4714 21.7729 16.0023L22.3729 16.0016ZM20.5036 11.4966C19.3086 10.3016 17.6884 9.62934 15.9983 9.62755L15.9977 10.2276C17.5288 10.2292 18.9967 10.8382 20.0793 11.9208L20.5036 11.4966ZM16.2675 10.0592L16.2676 10.0591L15.7285 9.79574L15.7284 9.79586L16.2675 10.0592ZM16.2138 21.0278V21.028H16.8138V21.0278H16.2138ZM16.4838 20.7295C16.1609 20.762 15.8354 20.762 15.5123 20.7295L15.4523 21.3265C15.8153 21.363 16.181 21.363 16.5438 21.3265L16.4838 20.7295ZM15.5129 20.7296C13.8816 20.5621 12.4518 19.5653 11.7304 18.0924L11.1916 18.3563C12.0041 20.0152 13.6144 21.1378 15.4516 21.3265L15.5129 20.7296ZM11.7304 18.0924C11.0091 16.6197 11.0983 14.879 11.9662 13.4875L11.4571 13.1699C10.4797 14.7371 10.3791 16.6976 11.1916 18.3563L11.7304 18.0924ZM11.9662 13.4875C12.8341 12.0959 14.3582 11.2505 15.998 11.2505V10.6505C14.1512 10.6505 12.4346 11.6027 11.4571 13.1699L11.9662 13.4875ZM15.998 11.2505C17.6381 11.2505 19.1622 12.096 20.0301 13.4875L20.5392 13.1699C19.5617 11.6027 17.8451 10.6505 15.998 10.6505V11.2505ZM20.0301 13.4875C20.898 14.879 20.987 16.6197 20.2659 18.0924L20.8047 18.3563C21.6169 16.6976 21.5166 14.7372 20.5392 13.1699L20.0301 13.4875ZM20.2659 18.0924C19.5445 19.5653 18.1148 20.562 16.4831 20.7296L16.5444 21.3265C18.382 21.1378 19.9922 20.0152 20.8047 18.3563L20.2659 18.0924ZM16.8102 21.0743L16.8102 21.0741L16.2174 20.9815L16.2174 20.9817L16.8102 21.0743Z" fill="#FBF7FB" mask="url(#path-2-outside-2_636_13522)"/>
</svg>
