<svg width="44" height="44" viewBox="0 0 44 44" fill="none" xmlns="http://www.w3.org/2000/svg">
<path fill-rule="evenodd" clip-rule="evenodd" d="M22 44C34.1503 44 44 34.1503 44 22C44 9.84974 34.1503 0 22 0C9.84974 0 0 9.84974 0 22C0 34.1503 9.84974 44 22 44ZM27.94 22C27.94 22.8976 27.8608 23.7688 27.7552 24.64H32.2168C32.428 23.7952 32.56 22.9108 32.56 22C32.56 21.0892 32.428 20.2048 32.2168 19.36H27.7552C27.8608 20.2312 27.94 21.1024 27.94 22ZM27.2404 27.28C26.818 28.93 26.2108 30.514 25.4188 31.9792C27.8266 31.1502 29.8555 29.4821 31.1344 27.28H27.2404ZM18.9112 24.64H25.0888C25.2076 23.7688 25.3 22.8976 25.3 22C25.3 21.1024 25.2076 20.218 25.0888 19.36H18.9112C18.7792 20.218 18.7 21.1024 18.7 22C18.7 22.8976 18.7792 23.7688 18.9112 24.64ZM19.4788 27.28C20.02 29.1676 20.9044 30.9232 22 32.5072C23.0956 30.9232 23.98 29.1676 24.5212 27.28H19.4788ZM12.8656 16.72H16.72C17.182 15.07 17.776 13.486 18.568 12.0208C16.1587 12.8412 14.1313 14.5119 12.8656 16.72ZM16.72 27.28H12.8656C14.1392 29.4814 16.1638 31.1498 18.568 31.9792C17.776 30.514 17.182 28.93 16.72 27.28ZM11.44 22C11.44 22.9108 11.572 23.7952 11.7832 24.64H16.2448C16.1392 23.7688 16.06 22.8976 16.06 22C16.06 21.1024 16.1392 20.2312 16.2448 19.36H11.7832C11.572 20.2048 11.44 21.0892 11.44 22ZM24.5212 16.72C23.98 14.8324 23.0956 13.0636 22 11.4796C20.9044 13.0636 20.02 14.8324 19.4788 16.72H24.5212ZM27.2404 16.72H31.1344C29.8672 14.5288 27.8476 12.8524 25.4188 12.0208C26.2155 13.507 26.8273 15.0851 27.2404 16.72ZM8.8 22C8.8 14.74 14.7004 8.8 22 8.8C23.7334 8.8 25.4499 9.14143 27.0514 9.80479C28.6529 10.4682 30.1081 11.4405 31.3338 12.6662C32.5595 13.8919 33.5318 15.3471 34.1952 16.9486C34.8586 18.5501 35.2 20.2666 35.2 22C35.2 25.5009 33.8093 28.8583 31.3338 31.3338C28.8583 33.8093 25.5009 35.2 22 35.2C20.2666 35.2 18.5501 34.8586 16.9486 34.1952C15.3471 33.5318 13.8919 32.5595 12.6662 31.3338C10.1907 28.8583 8.8 25.5009 8.8 22Z" fill="#FBF7FB"/>
</svg>
