<svg width="44" height="44" viewBox="0 0 44 44" fill="none" xmlns="http://www.w3.org/2000/svg">
<path d="M22 0C9.85089 0 0 9.85089 0 22C0 34.1491 9.85089 44 22 44C34.1491 44 44 34.1491 44 22C44 9.85089 34.1491 0 22 0ZM32.5728 16.5835C32.5875 16.8143 32.5875 17.0549 32.5875 17.2906C32.5875 24.4996 27.0973 32.8036 17.0647 32.8036C13.971 32.8036 11.1031 31.9049 8.68705 30.358C9.12902 30.4071 9.55134 30.4268 10.0031 30.4268C12.5567 30.4268 14.904 29.5625 16.775 28.0991C14.3786 28.05 12.3652 26.4786 11.6777 24.3179C12.5174 24.4406 13.2737 24.4406 14.1379 24.2196C12.904 23.969 11.7949 23.2988 10.9991 22.323C10.2033 21.3473 9.7698 20.1261 9.77232 18.867V18.7982C10.4942 19.2058 11.3438 19.4562 12.2326 19.4906C11.4854 18.9927 10.8726 18.318 10.4486 17.5265C10.0246 16.735 9.80239 15.8511 9.80179 14.9531C9.80179 13.9366 10.067 13.0085 10.5433 12.2031C11.9129 13.8892 13.622 15.2681 15.5594 16.2504C17.4969 17.2326 19.6193 17.7962 21.7888 17.9045C21.0179 14.1969 23.7875 11.1964 27.117 11.1964C28.6884 11.1964 30.1027 11.8545 31.0996 12.9152C32.3321 12.6844 33.5107 12.2228 34.5616 11.604C34.154 12.8661 33.2996 13.9317 32.1652 14.6045C33.2652 14.4866 34.3259 14.1821 35.308 13.7549C34.5665 14.8451 33.6384 15.8125 32.5728 16.5835Z" fill="#FBF7FB"/>
</svg>
