<svg width="30" height="30" viewBox="0 0 30 30" fill="none" xmlns="http://www.w3.org/2000/svg">
<path d="M15 0C6.7 0 0 6.7 0 15C0 23.3 6.7 30 15 30C23.3 30 30 23.3 30 15C30 6.7 23.3 0 15 0ZM15 28.2C7.7 28.2 1.8 22.3 1.8 15C1.8 7.7 7.7 1.8 15 1.8C22.3 1.8 28.2 7.7 28.2 15C28.2 22.3 22.3 28.2 15 28.2Z" fill="#FBF7FB"/>
<path d="M10.2998 21.8C10.0998 21.8 9.8998 21.7 9.7998 21.7C9.4998 21.5 9.2998 21.2 9.2998 20.8V9.3C9.2998 9 9.4998 8.6 9.7998 8.4C10.0998 8.2 10.4998 8.2 10.7998 8.4L22.3998 14.1C22.6998 14.3 22.9998 14.6 22.9998 15C22.9998 15.4 22.7998 15.7 22.3998 15.9L10.7998 21.6C10.5998 21.8 10.3998 21.8 10.2998 21.8ZM11.2998 10.9V19.3L19.6998 15.1L11.2998 10.9Z" fill="#FBF7FB"/>
</svg>
