<svg width="30" height="37" viewBox="0 0 30 37" fill="none" xmlns="http://www.w3.org/2000/svg">
<path d="M28.3804 36C28.3804 28.4392 22.3361 22.3099 14.8804 22.3099C7.42462 22.3099 1.38037 28.4392 1.38037 36" stroke="#ef6b0b" stroke-width="3" stroke-linecap="round" stroke-linejoin="round"/>
<path fill-rule="evenodd" clip-rule="evenodd" d="M24.005 8.04065C24.9309 8.96091 25.5054 10.2434 25.5054 11.662C25.5054 14.4623 23.2668 16.7324 20.5054 16.7324C20.4652 16.7324 20.4255 16.73 20.3866 16.7253C19.1234 17.9841 17.3914 18.7606 15.4805 18.7606C13.5718 18.7606 11.8416 17.9859 10.5788 16.7297C10.5545 16.7315 10.5301 16.7324 10.5054 16.7324C7.74395 16.7324 5.50537 14.4623 5.50537 11.662C5.50537 10.2434 6.07982 8.96091 7.0057 8.04064C7.04635 3.52982 10.9016 0 15.5054 0C20.1092 0 23.9644 3.52982 24.005 8.04065ZM9.16426 6.77601C9.59105 6.6558 10.0408 6.59155 10.5054 6.59155C10.5301 6.59155 10.5545 6.59246 10.5788 6.59424C11.8416 5.33804 13.5718 4.56338 15.4805 4.56338C17.3914 4.56338 19.1234 5.33985 20.3866 6.59864C20.4255 6.59396 20.4652 6.59155 20.5054 6.59155C20.9699 6.59155 21.4197 6.6558 21.8465 6.77601C21.2004 4.09674 18.6539 2.02817 15.5054 2.02817C12.3568 2.02817 9.81039 4.09674 9.16426 6.77601ZM10.4805 11.662C10.4805 8.86165 12.719 6.59155 15.4805 6.59155C18.2419 6.59155 20.4805 8.86165 20.4805 11.662C20.4805 14.4623 18.2419 16.7324 15.4805 16.7324C12.719 16.7324 10.4805 14.4623 10.4805 11.662Z" fill="#ef6b0b"/>
</svg>
