<svg width="31" height="37" viewBox="0 0 31 37" fill="none" xmlns="http://www.w3.org/2000/svg">
<path d="M29.8323 28.2918C30.6228 27.5 31.0386 26.4584 30.9972 25.3333C30.9557 24.2082 30.498 23.1666 29.6657 22.4167L28.6257 21.5001C28.1265 21.0417 27.8351 20.4168 27.8351 19.7501V14.6668C27.8351 11.6669 26.6703 8.54189 24.6734 6.16692C22.4687 3.49998 19.3068 2 15.8536 2C15.7288 2 15.604 2 15.5207 2.04185C15.4377 2 15.3129 2 15.2296 2C11.7766 2 8.61485 3.49998 6.32662 6.16662C4.32976 8.54174 3.16488 11.6248 3.16488 14.6665V19.7498C3.16488 20.4165 2.87351 21.0833 2.37435 21.4998L1.33427 22.4164C0.502289 23.1663 0.0446575 24.2079 0.00283177 25.333C-0.0386664 26.4581 0.37719 27.4997 1.16771 28.2915C1.91642 29.0413 2.95649 29.4996 4.03839 29.4996H26.9616C28.0434 29.4999 29.0835 29.0831 29.8323 28.2918H29.8323ZM13.3159 27.8334H4.0801C3.45618 27.8334 2.83194 27.5835 2.37431 27.1251C1.91666 26.6668 1.6671 26.0419 1.6671 25.3751C1.6671 24.7084 1.95846 24.1251 2.45763 23.6668L3.4977 22.7501C4.32968 22.0003 4.82914 20.8752 4.82914 19.7501V14.6668C4.82914 7.87518 10.2376 3.66697 15.2299 3.66697C15.3547 3.66697 15.4379 3.62541 15.5212 3.62541C15.6045 3.66697 15.7293 3.66697 15.8126 3.66697C20.8049 3.66697 26.2133 7.87518 26.2133 14.6668V19.7501C26.2133 20.8752 26.7125 22 27.5448 22.7501L28.5848 23.6668C29.084 24.1251 29.3335 24.7084 29.3754 25.3751C29.3754 26.0419 29.1258 26.6667 28.6681 27.1251C28.2105 27.5835 27.6281 27.8334 26.9624 27.8334H13.3159Z" fill="#FBF7FB"/>
<path d="M19.0571 31.7917C19.0571 33.7501 17.4761 35.3335 15.5207 35.3335C13.5653 35.3335 11.9843 33.7501 11.9843 31.7917C11.9843 31.3334 11.6099 30.9585 11.1523 30.9585C10.6947 30.9585 10.3203 31.3334 10.3203 31.7917C10.3203 34.6668 12.6503 37 15.5207 37C18.3913 37 20.721 34.6668 20.721 31.7917C20.721 31.3334 20.3467 30.9585 19.889 30.9585C19.4314 30.9585 19.0571 31.3334 19.0571 31.7917Z" fill="#FBF7FB"/>
<circle cx="22.5" cy="6.5" r="6.5" fill="url(#paint0_linear_725_18358)"/>
<path d="M21.95 4.66H20.8V3.88C21.1133 3.88 21.3633 3.85333 21.55 3.8C21.7433 3.74667 21.8967 3.66 22.01 3.54C22.1233 3.41333 22.2233 3.23333 22.31 3H23.05V10H21.95V4.66Z" fill="black"/>
<defs>
<linearGradient id="paint0_linear_725_18358" x1="13.3304" y1="-2.06818" x2="32.9568" y2="0.772487" gradientUnits="userSpaceOnUse">
<stop stop-color="#F3A242"/>
<stop offset="1" stop-color="#EF6B0B"/>
</linearGradient>
</defs>
</svg>
