<svg width="25" height="30" viewBox="0 0 25 30" fill="none" xmlns="http://www.w3.org/2000/svg">
<path d="M0 3.75C0 2.75544 0.395088 1.80161 1.09835 1.09835C1.80161 0.395088 2.75544 0 3.75 0H10.4738C11.2194 0.000656445 11.9343 0.297403 12.4613 0.825L19.8019 8.16375C20.3288 8.691 20.6248 9.40585 20.625 10.1512V22.5C20.625 23.4946 20.2299 24.4484 19.5266 25.1516C18.8234 25.8549 17.8696 26.25 16.875 26.25H3.75C2.75544 26.25 1.80161 25.8549 1.09835 25.1516C0.395088 24.4484 0 23.4946 0 22.5V3.75ZM3.75 1.875C3.25272 1.875 2.77581 2.07254 2.42418 2.42417C2.07254 2.77581 1.875 3.25272 1.875 3.75V22.5C1.875 22.9973 2.07254 23.4742 2.42418 23.8258C2.77581 24.1775 3.25272 24.375 3.75 24.375H16.875C17.3723 24.375 17.8492 24.1775 18.2008 23.8258C18.5525 23.4742 18.75 22.9973 18.75 22.5V11.25H12.1875C11.4416 11.25 10.7262 10.9537 10.1988 10.4262C9.67132 9.89879 9.375 9.18342 9.375 8.4375V1.875H3.75ZM11.25 2.26312V8.4375C11.25 8.68614 11.3488 8.9246 11.5246 9.10041C11.7004 9.27623 11.9389 9.375 12.1875 9.375H18.3619L11.25 2.26312ZM24.375 13.125C24.375 12.6277 24.1775 12.1508 23.8258 11.7992C23.4742 11.4475 22.9973 11.25 22.5 11.25V22.5C22.5 23.9918 21.9074 25.4226 20.8525 26.4775C19.7976 27.5324 18.3668 28.125 16.875 28.125H3.75C3.75 28.6223 3.94754 29.0992 4.29918 29.4508C4.65081 29.8025 5.12772 30 5.625 30H16.9875C17.9576 30 18.9183 29.8089 19.8146 29.4377C20.7109 29.0664 21.5253 28.5222 22.2113 27.8363C22.8972 27.1503 23.4414 26.3359 23.8127 25.4396C24.1839 24.5433 24.375 23.5826 24.375 22.6125V13.125Z" fill="#FBF7FB"/>
</svg>
