<svg width="34" height="32" viewBox="0 0 34 32" fill="none" xmlns="http://www.w3.org/2000/svg">
<path d="M11.5657 31H8.10189C6.26458 31 4.50253 30.2701 3.20336 28.971C1.90418 27.6718 1.17432 25.9097 1.17432 24.0724V13.1754C1.17429 11.9842 1.48141 10.8131 2.06601 9.77529C2.65062 8.73744 3.49295 7.86787 4.51167 7.25055L13.1711 2.00291C14.2538 1.34686 15.4955 1 16.7614 1C18.0272 1 19.2689 1.34686 20.3516 2.00291L29.011 7.25055C30.0295 7.86772 30.8717 8.73702 31.4563 9.77453C32.0409 10.812 32.3481 11.9827 32.3484 13.1736V24.0724C32.3484 25.9097 31.6185 27.6718 30.3194 28.971C29.0202 30.2701 27.2581 31 25.4208 31H21.957M11.5657 31H21.957M11.5657 31V24.0724C11.5657 22.6944 12.1131 21.3729 13.0875 20.3985C14.0618 19.4241 15.3834 18.8767 16.7614 18.8767C18.1393 18.8767 19.4609 19.4241 20.4353 20.3985C21.4096 21.3729 21.957 22.6944 21.957 24.0724V31" stroke="#FBF7FB" stroke-width="2" stroke-linecap="round" stroke-linejoin="round"/>
</svg>
