<svg width="44" height="44" viewBox="0 0 44 44" fill="none" xmlns="http://www.w3.org/2000/svg">
<path fill-rule="evenodd" clip-rule="evenodd" d="M22 44C34.1503 44 44 34.1503 44 22C44 9.84974 34.1503 0 22 0C9.84974 0 0 9.84974 0 22C0 34.1503 9.84974 44 22 44ZM17.5947 22C17.5947 19.5762 19.5727 17.5981 21.9965 17.5981C24.4202 17.5981 26.3982 19.5762 26.3982 22C26.3982 24.4238 24.4202 26.4019 21.9965 26.4019C19.5727 26.4019 17.5947 24.4238 17.5947 22ZM35.199 21.3331C35.1988 21.5552 35.1985 21.7775 35.1985 22C35.1985 22.2488 35.1989 22.4973 35.1993 22.7456C35.2016 24.3162 35.2039 25.8775 35.1127 27.4487C35.0103 29.5621 34.5315 31.4345 32.9828 32.9832C31.4374 34.5287 29.5617 35.0108 27.4483 35.1132C25.8509 35.203 24.2637 35.2013 22.6665 35.1995C22.4445 35.1993 22.2222 35.199 21.9998 35.199C21.7777 35.199 21.5559 35.1993 21.3342 35.1995C19.7392 35.2013 18.1515 35.203 16.5512 35.1132C14.4378 35.0108 12.5655 34.532 11.0167 32.9832C9.47132 31.4378 8.98921 29.5621 8.88684 27.4487C8.79696 25.8512 8.79872 24.2613 8.80049 22.6656C8.80074 22.4439 8.80098 22.222 8.80098 22C8.80098 21.778 8.80074 21.5561 8.80049 21.3344C8.79872 19.7394 8.79696 18.1517 8.88684 16.5513C8.98921 14.4379 9.46802 12.5655 11.0167 11.0168C12.5622 9.47134 14.4378 8.98921 16.5512 8.88684C18.1486 8.79697 19.7358 8.79872 21.333 8.80049C21.555 8.80074 21.7773 8.80098 21.9998 8.80098C22.2218 8.80098 22.4436 8.80074 22.6653 8.80049C24.2603 8.79872 25.848 8.79696 27.4483 8.88684C29.5617 8.98921 31.4341 9.46803 32.9828 11.0168C34.5282 12.5622 35.0103 14.4379 35.1127 16.5513C35.2025 18.1487 35.2008 19.736 35.199 21.3331ZM15.2237 22C15.2237 25.748 18.2485 28.7729 21.9965 28.7729C25.7444 28.7729 28.7692 25.748 28.7692 22C28.7692 18.252 25.7444 15.2271 21.9965 15.2271C18.2485 15.2271 15.2237 18.252 15.2237 22ZM27.4648 14.9497C27.4648 15.8248 28.1715 16.5315 29.0466 16.5315C29.2544 16.5318 29.4602 16.491 29.6522 16.4116C29.8442 16.3322 30.0187 16.2157 30.1656 16.0688C30.3126 15.9219 30.4291 15.7474 30.5085 15.5554C30.5879 15.3633 30.6286 15.1575 30.6283 14.9497C30.6283 14.0746 29.9217 13.368 29.0466 13.368C28.1715 13.368 27.4648 14.0746 27.4648 14.9497Z" fill="#FBF7FB"/>
</svg>
