<svg width="44" height="44" viewBox="0 0 44 44" fill="none" xmlns="http://www.w3.org/2000/svg">
<path fill-rule="evenodd" clip-rule="evenodd" d="M22 44C34.1503 44 44 34.1503 44 22C44 9.84974 34.1503 0 22 0C9.84974 0 0 9.84974 0 22C0 34.1503 9.84974 44 22 44ZM32.8873 29.92C35.6215 29.92 37.84 27.6989 37.84 24.9615V24.9614C37.84 22.2924 35.7272 20.1211 33.0861 20.0153H33.0551C33.0309 20.0153 33.0053 20.0139 32.979 20.0124C32.9511 20.0108 32.9223 20.0091 32.8935 20.0091H32.8811C32.4461 20.0091 32.0732 19.7229 31.9427 19.3247C31.9395 19.3247 31.9364 19.3231 31.9332 19.3208C31.9302 19.3184 31.9271 19.3154 31.924 19.3123C30.8801 16.3882 28.1707 14.2666 24.9393 14.08C23.3174 14.0986 22.0062 15.4176 22.0062 17.0477V28.9246C22.0062 29.4721 22.4474 29.9138 22.9942 29.9138C23.5411 29.9138 23.9823 29.4721 23.9823 28.9246V17.0477C23.9823 16.5251 24.3924 16.0958 24.9082 16.0647C27.3007 16.2389 29.2954 17.8316 30.066 20.0029C30.066 20.0102 30.0703 20.0154 30.0738 20.0196C30.0763 20.0227 30.0784 20.0252 30.0784 20.0278C30.4886 21.1726 31.5885 21.9938 32.8749 21.9938H32.8873C34.5278 21.9938 35.8577 23.3252 35.8577 24.9677C35.8577 26.6102 34.5279 27.9416 32.8873 27.9416H30.905C30.3581 27.9416 29.9169 28.3833 29.9169 28.9308C29.9169 29.4783 30.3581 29.92 30.905 29.92H32.8873ZM18.0416 28.9308C18.0416 29.4782 18.4828 29.92 19.0296 29.92C19.5765 29.92 20.0177 29.4721 20.0177 28.9308V18.0244C20.0177 17.477 19.5765 17.0352 19.0296 17.0352C18.4828 17.0352 18.0416 17.477 18.0416 18.0244V28.9308ZM14.0769 28.9307C14.0769 29.4782 14.5181 29.92 15.065 29.92C15.6118 29.92 16.0593 29.472 16.053 28.9245V17.5267C16.053 16.9792 15.6118 16.5375 15.065 16.5375C14.5181 16.5375 14.0769 16.9792 14.0769 17.5267V28.9307ZM10.1184 28.9307C10.1184 29.4782 10.5597 29.9199 11.1065 29.9199C11.6534 29.9199 12.0946 29.472 12.0946 28.9307V20.9983C12.0946 20.4508 11.6534 20.0091 11.1065 20.0091C10.5597 20.0091 10.1184 20.4508 10.1184 20.9983V28.9307ZM6.16 26.946C6.16 27.4935 6.60121 27.9352 7.14806 27.9352C7.69491 27.9352 8.13612 27.4935 8.13612 26.946V22.9829C8.13612 22.4354 7.69491 21.9937 7.14806 21.9937C6.60121 21.9937 6.16 22.4354 6.16 22.9829V26.946ZM27.9346 28.9245C27.9346 28.377 27.4934 27.9352 26.9465 27.9352C26.3997 27.9352 25.9584 28.377 25.9584 28.9245C25.9584 29.472 26.3997 29.9137 26.9465 29.9137C27.4934 29.9137 27.9346 29.472 27.9346 28.9245Z" fill="#FBF7FB"/>
</svg>
