<svg width="44" height="44" viewBox="0 0 44 44" fill="none" xmlns="http://www.w3.org/2000/svg">
<path d="M26.2723 28.9241L33.7857 15.0759H17.7277L10.2143 28.9241H26.2723ZM44 22C44 24.9792 43.4189 27.8274 42.2567 30.5446C41.0945 33.2619 39.5312 35.6027 37.567 37.567C35.6027 39.5312 33.2619 41.0945 30.5446 42.2567C27.8274 43.4189 24.9792 44 22 44C19.0208 44 16.1726 43.4189 13.4554 42.2567C10.7381 41.0945 8.39732 39.5312 6.43304 37.567C4.46875 35.6027 2.90551 33.2619 1.7433 30.5446C0.581101 27.8274 0 24.9792 0 22C0 19.0208 0.581101 16.1726 1.7433 13.4554C2.90551 10.7381 4.46875 8.39732 6.43304 6.43304C8.39732 4.46875 10.7381 2.90551 13.4554 1.7433C16.1726 0.581101 19.0208 0 22 0C24.9792 0 27.8274 0.581101 30.5446 1.7433C33.2619 2.90551 35.6027 4.46875 37.567 6.43304C39.5312 8.39732 41.0945 10.7381 42.2567 13.4554C43.4189 16.1726 44 19.0208 44 22Z" fill="#FBF7FB"/>
</svg>
