<svg width="26" height="32" viewBox="0 0 26 32" fill="none" xmlns="http://www.w3.org/2000/svg">
<path d="M17.0683 24.3813C16.8319 24.3941 16.6011 24.306 16.4336 24.1393C16.2658 23.9722 16.1775 23.742 16.19 23.5062L16.1901 23.506C16.2027 23.2731 16.3127 23.0561 16.4935 22.9081L22.5956 16.8312H7.49308C7.27329 16.8406 7.05837 16.7631 6.89542 16.6155L6.89531 16.6154C6.73142 16.4667 6.6335 16.2593 6.62301 16.0384L6.623 16.0382C6.6128 15.8177 6.6909 15.6019 6.83998 15.4386L6.84017 15.4384C6.9894 15.2756 7.19739 15.178 7.41884 15.1678L7.41899 15.1678C7.44355 15.1667 7.46833 15.1667 7.49291 15.1677H22.5956L16.4892 9.08657C16.2541 8.86184 16.1713 8.52123 16.2779 8.21424C16.3692 7.95088 16.5853 7.75374 16.8492 7.68279L16.849 7.66321L16.9939 7.65673C17.0187 7.65562 17.0437 7.65558 17.0685 7.65661C17.2937 7.65907 17.5085 7.7519 17.664 7.9148M17.0683 24.3813C17.0683 24.3813 17.0682 24.3813 17.0682 24.3813L17.0603 24.2316L17.0683 24.3813ZM17.0683 24.3813C17.3019 24.369 17.5195 24.2594 17.668 24.0794M17.668 24.0794L25.1939 16.5848L25.1944 16.5842C25.5164 16.2601 25.5164 15.7381 25.1944 15.414L25.1939 15.4134L17.664 7.9148M17.668 24.0794L17.6626 24.0848L17.5567 23.9785L17.6734 24.0728C17.6716 24.075 17.6698 24.0772 17.668 24.0794ZM17.664 7.9148C17.6645 7.91532 17.665 7.91585 17.6655 7.91638L17.5567 8.01965M17.664 7.9148L17.6626 7.91336L17.5567 8.01965M17.5567 8.01965L25.088 15.5197L17.1506 7.81263C17.305 7.83326 17.4486 7.90575 17.5567 8.01965ZM2.69718 0.850021C1.48879 0.850021 0.493066 1.84069 0.493066 3.04536V28.9546C0.493066 30.1593 1.48879 31.1499 2.69718 31.1499H13.6508C13.8738 31.1528 14.0884 31.0668 14.2474 30.9108L14.1423 30.8037L14.2474 30.9108C14.4067 30.7544 14.4962 30.5411 14.4962 30.3182C14.4962 30.0955 14.4067 29.8819 14.2474 29.7255L14.1423 29.8326L14.2474 29.7255C14.0884 29.5695 13.8738 29.4835 13.6508 29.4864H2.69718C2.3883 29.4864 2.16258 29.2607 2.16258 28.9546V3.04539C2.16258 2.73931 2.38831 2.51363 2.69718 2.51363H13.6508C13.8738 2.51651 14.0884 2.4305 14.2474 2.2745C14.4067 2.11811 14.4962 1.9045 14.4962 1.68185C14.4962 1.45893 14.4067 1.24557 14.2474 1.0892C14.0884 0.933196 13.8738 0.847193 13.6508 0.85007L2.69718 0.850021Z" fill="#FBF7FB" stroke="#FBF7FB" stroke-width="0.3"/>
</svg>
