<svg width="40" height="30" viewBox="0 0 40 30" fill="none" xmlns="http://www.w3.org/2000/svg">
<path d="M6.25 0C4.5924 0 3.00269 0.65848 1.83058 1.83058C0.65848 3.00269 0 4.5924 0 6.25V23.75C0 25.4076 0.65848 26.9973 1.83058 28.1694C3.00269 29.3415 4.5924 30 6.25 30H23.75C25.4076 30 26.9973 29.3415 28.1694 28.1694C29.3415 26.9973 30 25.4076 30 23.75V21.25L36 25.75C36.3714 26.0286 36.8131 26.1982 37.2755 26.2399C37.7379 26.2816 38.2028 26.1937 38.618 25.9861C39.0333 25.7784 39.3825 25.4593 39.6266 25.0643C39.8707 24.6694 40 24.2143 40 23.75V6.25C40 5.78572 39.8707 5.33061 39.6266 4.93567C39.3825 4.54073 39.0333 4.22156 38.618 4.01393C38.2028 3.8063 37.7379 3.71841 37.2755 3.7601C36.8131 3.8018 36.3714 3.97143 36 4.25L30 8.75V6.25C30 4.5924 29.3415 3.00269 28.1694 1.83058C26.9973 0.65848 25.4076 0 23.75 0H6.25ZM30 11.875L37.5 6.25V23.75L30 18.125V11.875ZM27.5 6.25V23.75C27.5 24.7446 27.1049 25.6984 26.4017 26.4017C25.6984 27.1049 24.7446 27.5 23.75 27.5H6.25C5.25544 27.5 4.30161 27.1049 3.59835 26.4017C2.89509 25.6984 2.5 24.7446 2.5 23.75V6.25C2.5 5.25544 2.89509 4.30161 3.59835 3.59835C4.30161 2.89509 5.25544 2.5 6.25 2.5H23.75C24.7446 2.5 25.6984 2.89509 26.4017 3.59835C27.1049 4.30161 27.5 5.25544 27.5 6.25Z" fill="#FBF7FB"/>
</svg>
