<svg width="28" height="32" viewBox="0 0 28 32" fill="none" xmlns="http://www.w3.org/2000/svg">
<path d="M26.3282 23.641C27.0353 22.9334 27.4083 22.0006 27.3712 20.9944C27.3342 19.9923 26.9253 19.0602 26.1786 18.3885L26.1774 18.3875L25.2857 17.6028C24.8866 17.2364 24.6568 16.7404 24.6568 16.2144V11.8573C24.6568 9.24926 23.6435 6.53702 21.9077 4.47546C19.9869 2.15569 17.2305 0.85 14.2213 0.85L14.218 0.85C14.1667 0.849997 14.1074 0.849995 14.0514 0.855106C14.0156 0.858376 13.9756 0.864121 13.9357 0.875701C13.8967 0.864275 13.8583 0.858516 13.8257 0.855236C13.7735 0.849995 13.7226 0.849998 13.6877 0.85L13.6857 0.85C10.6759 0.85 7.92078 2.15614 5.92913 4.47362L5.92815 4.47477C4.19229 6.53631 3.1787 9.2128 3.1787 11.857V16.2141C3.1787 16.7448 2.94559 17.2727 2.55405 17.5989L2.55402 17.5988L2.55097 17.6015L1.65812 18.3872L1.65688 18.3883C0.910503 19.06 0.501664 19.992 0.464351 20.9941L0.46435 20.9942C0.427165 22.0008 0.800464 22.9339 1.50817 23.6416C2.17754 24.311 3.10797 24.7211 4.07856 24.7211H23.7569C23.7569 24.7211 23.7569 24.7211 23.7569 24.7211C24.723 24.7214 25.6553 24.3499 26.3282 23.641ZM0.614247 20.9997L0.611063 20.9996L0.614247 20.9997ZM3.71351 18.8984L3.71475 18.8973C4.46069 18.226 4.90738 17.2211 4.90738 16.2144V11.8573C4.90738 6.12435 9.47734 2.57883 13.6859 2.57883C13.7564 2.57883 13.8141 2.56691 13.8567 2.55747L13.86 2.55673C13.8846 2.55128 13.9005 2.54776 13.9123 2.54568C13.9592 2.56223 14.0068 2.56972 14.0461 2.57364C14.0983 2.57884 14.1491 2.57883 14.184 2.57883H14.1861C18.3946 2.57883 22.9646 6.12435 22.9646 11.8573V16.2144C22.9646 17.2211 23.411 18.2258 24.1572 18.8973L24.1584 18.8984L25.0501 19.6831C25.4452 20.0458 25.6444 20.506 25.679 21.0405C25.6778 21.5724 25.4781 22.0674 25.1158 22.4298C24.7506 22.795 24.2886 22.9929 23.7576 22.9929H12.0429H4.11437C3.61788 22.9929 3.12036 22.794 2.7561 22.4298C2.39276 22.0664 2.19293 21.5696 2.19293 21.0358C2.19293 20.5126 2.42046 20.0515 2.82181 19.6831L3.71351 18.8984Z" fill="#FBF7FB" stroke="#FBF7FB" stroke-width="0.3"/>
<path d="M16.8212 26.5358C16.8212 28.1315 15.5312 29.4216 13.9354 29.4216C12.3397 29.4216 11.0496 28.1315 11.0496 26.5358C11.0496 26.06 10.6611 25.6715 10.1854 25.6715C9.70971 25.6715 9.32119 26.0601 9.32119 26.5358C9.32119 29.0829 11.3885 31.15 13.9354 31.15C16.4826 31.15 18.5497 29.0829 18.5497 26.5358C18.5497 26.06 18.1611 25.6715 17.6855 25.6715C17.2097 25.6715 16.8212 26.0601 16.8212 26.5358Z" fill="#FBF7FB" stroke="#FBF7FB" stroke-width="0.3"/>
</svg>
