<svg width="397" height="48" viewBox="0 0 397 48" fill="none" xmlns="http://www.w3.org/2000/svg">
<rect width="397" height="48" fill="#232323"/>
<path d="M332.151 29V26.5938H333.489V25.5544H332.151V19.5032H330.528L326.456 25.6113V26.5938H330.969V29H332.151ZM330.969 25.5544H327.637L330.969 20.5996V25.5544ZM339.549 29.1851C341.101 29.1851 342.397 28.5301 343.28 27.5335V24.1164H338.837V25.17H342.112V27.0921C341.628 27.5762 340.688 28.1172 339.549 28.1172C337.47 28.1172 335.89 26.5083 335.89 24.2587C335.89 21.9807 337.47 20.4002 339.549 20.4002C340.688 20.4002 341.699 20.9413 342.297 21.7101L343.237 21.1121C342.411 20.087 341.243 19.3466 339.549 19.3466C336.844 19.3466 334.666 21.2972 334.666 24.2587C334.666 27.206 336.844 29.1851 339.549 29.1851Z" fill="white"/>
<rect x="301.313" y="25.2881" width="3.05975" height="4.19209" fill="white"/>
<rect x="306.412" y="23.1921" width="3.05972" height="6.28814" fill="white"/>
<rect x="311.512" y="21.0961" width="3.05975" height="8.38419" fill="white"/>
<rect opacity="0.3" x="316.612" y="19" width="3.05975" height="10.4802" fill="white"/>
<rect x="350.72" y="19.4746" width="23.2067" height="9.53104" rx="2.373" stroke="white" stroke-width="0.949202"/>
<rect x="352.178" y="20.6123" width="11.5948" height="7.25555" rx="0.949202" fill="#A0A0A0"/>
<rect x="375.367" y="22.2247" width="1.9325" height="4.03086" rx="0.966248" fill="white"/>
<path d="M36.6264 28.1985C39.6374 28.1985 40.8451 25.1709 40.8451 22.4908C40.8451 19.7941 39.6374 16.7996 36.6264 16.7996C33.5988 16.7996 32.4076 19.7941 32.4076 22.4908C32.4076 25.1709 33.5988 28.1985 36.6264 28.1985ZM36.6264 26.9743C34.5253 26.9743 33.8139 24.6912 33.8139 22.4908C33.8139 20.2904 34.5253 18.0238 36.6264 18.0238C38.7275 18.0238 39.4389 20.2904 39.4389 22.4908C39.4389 24.6912 38.7275 26.9743 36.6264 26.9743ZM46.5083 28.1985C48.6756 28.1985 50.4624 27.0735 50.4624 25.204C50.4624 23.7316 49.205 22.7224 47.8318 22.3088C49.1057 21.9448 50.2969 21.1011 50.2969 19.6617C50.2969 17.6764 48.3282 16.7996 46.5083 16.7996C44.6719 16.7996 42.7362 17.6764 42.7362 19.6617C42.7362 21.1011 43.9109 21.9448 45.1848 22.3088C43.8116 22.7224 42.5542 23.7316 42.5542 25.204C42.5542 27.0901 44.3245 28.1985 46.5083 28.1985ZM46.5083 21.7463C45.8465 21.6305 44.1259 21.1838 44.1259 19.8437C44.1259 18.7022 45.1682 18.0238 46.5083 18.0238C47.8318 18.0238 48.9072 18.7022 48.9072 19.8437C48.9072 21.1838 47.1866 21.6305 46.5083 21.7463ZM46.5083 26.9743C45.1351 26.9743 43.9439 26.2463 43.9439 25.0551C43.9439 23.6158 45.83 23.0037 46.5083 22.9209C47.1866 23.0037 49.0726 23.6158 49.0726 25.0551C49.0726 26.2463 47.8649 26.9743 46.5083 26.9743ZM53.2258 21.7132C53.7221 21.7132 54.1357 21.2831 54.1357 20.8033C54.1357 20.3069 53.7221 19.8933 53.2258 19.8933C52.7294 19.8933 52.3158 20.3069 52.3158 20.8033C52.3158 21.2831 52.7294 21.7132 53.2258 21.7132ZM53.2258 28.1654C53.7221 28.1654 54.1357 27.7518 54.1357 27.2555C54.1357 26.7592 53.7221 26.3456 53.2258 26.3456C52.7294 26.3456 52.3158 26.7592 52.3158 27.2555C52.3158 27.7518 52.7294 28.1654 53.2258 28.1654ZM59.4399 28.1985C61.8719 28.1985 63.3609 26.8585 63.3609 25.022C63.3609 23.2353 61.8057 22.3915 60.8131 22.2923C61.8388 22.1268 63.1789 21.3327 63.1789 19.7279C63.1789 17.8749 61.5741 16.7996 59.4565 16.7996C57.7359 16.7996 56.462 17.5275 55.6678 18.5036L56.4289 19.3639C57.2395 18.4871 58.1329 18.0238 59.3406 18.0238C60.6807 18.0238 61.8057 18.6856 61.8057 19.9099C61.8057 21.1838 60.6311 21.7297 59.2414 21.7297C58.7947 21.7297 58.2818 21.7297 58.0998 21.7132V22.9706C58.2653 22.954 58.7781 22.954 59.2414 22.954C60.8627 22.954 61.9877 23.5331 61.9877 24.9062C61.9877 26.1636 61.0116 26.9743 59.4068 26.9743C58.0998 26.9743 56.9748 26.3787 56.3296 25.5184L55.5189 26.3787C56.1972 27.3713 57.5704 28.1985 59.4399 28.1985ZM71.3954 28V25.204H72.9506V23.9963H71.3954V16.965H69.5094L64.7777 24.0625V25.204H70.0223V28H71.3954ZM70.0223 23.9963H66.1509L70.0223 18.2389V23.9963Z" fill="white"/>
</svg>
