<svg width="83" height="79" viewBox="0 0 83 79" fill="none" xmlns="http://www.w3.org/2000/svg">
<g style="mix-blend-mode:multiply">
<path d="M0 0H73C78.5228 0 83 4.47715 83 10V79L41 40.2248L0 0Z" fill="#7836CC"/>
</g>
<path d="M53.125 19C52.2962 19 51.5013 19.3292 50.9153 19.9153C50.3292 20.5013 50 21.2962 50 22.125V30.875C50 31.7038 50.3292 32.4987 50.9153 33.0847C51.5013 33.6708 52.2962 34 53.125 34H61.875C62.7038 34 63.4987 33.6708 64.0847 33.0847C64.6708 32.4987 65 31.7038 65 30.875V29.625L68 31.875C68.1857 32.0143 68.4065 32.0991 68.6377 32.1199C68.8689 32.1408 69.1014 32.0969 69.309 31.993C69.5166 31.8892 69.6913 31.7296 69.8133 31.5322C69.9354 31.3347 70 31.1071 70 30.875V22.125C70 21.8929 69.9354 21.6653 69.8133 21.4678C69.6913 21.2704 69.5166 21.1108 69.309 21.007C69.1014 20.9031 68.8689 20.8592 68.6377 20.8801C68.4065 20.9009 68.1857 20.9857 68 21.125L65 23.375V22.125C65 21.2962 64.6708 20.5013 64.0847 19.9153C63.4987 19.3292 62.7038 19 61.875 19H53.125ZM65 24.9375L68.75 22.125V30.875L65 28.0625V24.9375ZM63.75 22.125V30.875C63.75 31.3723 63.5525 31.8492 63.2008 32.2008C62.8492 32.5525 62.3723 32.75 61.875 32.75H53.125C52.6277 32.75 52.1508 32.5525 51.7992 32.2008C51.4475 31.8492 51.25 31.3723 51.25 30.875V22.125C51.25 21.6277 51.4475 21.1508 51.7992 20.7992C52.1508 20.4475 52.6277 20.25 53.125 20.25H61.875C62.3723 20.25 62.8492 20.4475 63.2008 20.7992C63.5525 21.1508 63.75 21.6277 63.75 22.125Z" fill="#FBF7FB"/>
</svg>
