<svg width="31" height="30" viewBox="0 0 31 30" fill="none" xmlns="http://www.w3.org/2000/svg">
<path d="M16.6964 1.07143C16.6964 0.787268 16.5835 0.514746 16.3826 0.313814C16.1817 0.112882 15.9092 0 15.625 0C15.3408 0 15.0683 0.112882 14.8674 0.313814C14.6665 0.514746 14.5536 0.787268 14.5536 1.07143V4.33929C12.0947 4.58719 9.79709 5.67714 8.04962 7.42462C6.30214 9.17209 5.21219 11.4697 4.96429 13.9286H1.69643C1.41227 13.9286 1.13975 14.0415 0.938814 14.2424C0.737882 14.4433 0.625 14.7158 0.625 15C0.625 15.2842 0.737882 15.5567 0.938814 15.7576C1.13975 15.9585 1.41227 16.0714 1.69643 16.0714H4.96429C5.21173 18.5307 6.30147 20.8288 8.04899 22.5767C9.79651 24.3246 12.0944 25.4149 14.5536 25.6629V28.9286C14.5536 29.2127 14.6665 29.4853 14.8674 29.6862C15.0683 29.8871 15.3408 30 15.625 30C15.9092 30 16.1817 29.8871 16.3826 29.6862C16.5835 29.4853 16.6964 29.2127 16.6964 28.9286V25.6629C19.1556 25.4149 21.4535 24.3246 23.201 22.5767C24.9485 20.8288 26.0383 18.5307 26.2857 16.0714H29.5536C29.8377 16.0714 30.1103 15.9585 30.3112 15.7576C30.5121 15.5567 30.625 15.2842 30.625 15C30.625 14.7158 30.5121 14.4433 30.3112 14.2424C30.1103 14.0415 29.8377 13.9286 29.5536 13.9286H26.2857C26.0378 11.4697 24.9479 9.17209 23.2004 7.42462C21.4529 5.67714 19.1553 4.58719 16.6964 4.33929V1.07143ZM15.625 23.5714C13.3517 23.5714 11.1715 22.6684 9.56409 21.0609C7.95663 19.4535 7.05357 17.2733 7.05357 15C7.05357 12.7267 7.95663 10.5465 9.56409 8.93909C11.1715 7.33163 13.3517 6.42857 15.625 6.42857C17.8983 6.42857 20.0785 7.33163 21.6859 8.93909C23.2934 10.5465 24.1964 12.7267 24.1964 15C24.1964 17.2733 23.2934 19.4535 21.6859 21.0609C20.0785 22.6684 17.8983 23.5714 15.625 23.5714Z" fill="#FBF7FB"/>
</svg>
