<svg width="31" height="30" viewBox="0 0 31 30" fill="none" xmlns="http://www.w3.org/2000/svg">
<path d="M27.3209 0.484927L15.0066 12.7992L2.69227 0.484927C2.3961 0.213898 2.00677 0.0675905 1.6054 0.0764838C1.20403 0.0853771 0.821566 0.248786 0.537684 0.532667C0.253802 0.816549 0.0903938 1.19901 0.0815006 1.60038C0.0726073 2.00175 0.218915 2.39108 0.489944 2.68726L12.798 15.0016L0.48682 27.3127C0.336413 27.4561 0.216179 27.628 0.133184 27.8185C0.0501902 28.009 0.00611053 28.2141 0.00353751 28.4219C0.0009645 28.6296 0.03995 28.8358 0.118202 29.0283C0.196453 29.2208 0.312392 29.3956 0.459203 29.5427C0.606014 29.6897 0.780734 29.8059 0.973093 29.8844C1.16545 29.9629 1.37157 30.0022 1.57933 29.9999C1.78708 29.9976 1.99229 29.9538 2.18288 29.8711C2.37347 29.7884 2.5456 29.6684 2.68915 29.5182L15.0066 17.207L27.3209 29.5213C27.6171 29.7924 28.0064 29.9387 28.4078 29.9298C28.8091 29.9209 29.1916 29.7575 29.4755 29.4736C29.7594 29.1897 29.9228 28.8072 29.9317 28.4059C29.9406 28.0045 29.7942 27.6152 29.5232 27.319L17.2089 15.0047L29.5232 2.68726C29.6736 2.54392 29.7939 2.37196 29.8769 2.18149C29.9598 1.99101 30.0039 1.78587 30.0065 1.57812C30.0091 1.37036 29.9701 1.16419 29.8918 0.971721C29.8136 0.779251 29.6976 0.604366 29.5508 0.457347C29.404 0.310327 29.2293 0.194141 29.0369 0.115617C28.8446 0.0370922 28.6385 -0.00218479 28.4307 9.37485e-05C28.223 0.00237228 28.0177 0.0461607 27.8272 0.128885C27.6366 0.211609 27.4644 0.3316 27.3209 0.481803V0.484927Z" fill="#FBF7FB"/>
</svg>
