<svg width="29" height="32" viewBox="0 0 29 32" fill="none" xmlns="http://www.w3.org/2000/svg">
<path d="M1 7.66667H27.6667M26 7.66667L24.555 27.9033C24.4951 28.7443 24.1188 29.5314 23.5019 30.106C22.8849 30.6806 22.0731 31 21.23 31H7.43667C6.59357 31 5.78178 30.6806 5.16481 30.106C4.54784 29.5314 4.17153 28.7443 4.11167 27.9033L2.66667 7.66667H26ZM11 14.3333V24.3333V14.3333ZM17.6667 14.3333V24.3333V14.3333ZM19.3333 7.66667V2.66667C19.3333 2.22464 19.1577 1.80072 18.8452 1.48816C18.5326 1.17559 18.1087 1 17.6667 1H11C10.558 1 10.134 1.17559 9.82149 1.48816C9.50893 1.80072 9.33333 2.22464 9.33333 2.66667V7.66667H19.3333Z" stroke="#FBF7FB" stroke-width="2" stroke-linecap="round" stroke-linejoin="round"/>
</svg>
