<svg width="33" height="30" viewBox="0 0 33 30" fill="none" xmlns="http://www.w3.org/2000/svg">
<path fill-rule="evenodd" clip-rule="evenodd" d="M1.26923 0C0.93261 0 0.609776 0.175595 0.371749 0.488156C0.133722 0.800716 0 1.22464 0 1.66667C0 2.10869 0.133722 2.53262 0.371749 2.84518C0.609776 3.15774 0.93261 3.33333 1.26923 3.33333H31.7308C32.0674 3.33333 32.3902 3.15774 32.6283 2.84518C32.8663 2.53262 33 2.10869 33 1.66667C33 1.22464 32.8663 0.800716 32.6283 0.488156C32.3902 0.175595 32.0674 0 31.7308 0H1.26923ZM0 15C0 14.558 0.133722 14.134 0.371749 13.8215C0.609776 13.5089 0.93261 13.3333 1.26923 13.3333H31.7308C32.0674 13.3333 32.3902 13.5089 32.6283 13.8215C32.8663 14.134 33 14.558 33 15C33 15.442 32.8663 15.8659 32.6283 16.1785C32.3902 16.4911 32.0674 16.6667 31.7308 16.6667H1.26923C0.93261 16.6667 0.609776 16.4911 0.371749 16.1785C0.133722 15.8659 0 15.442 0 15ZM0 28.3333C0 27.8913 0.133722 27.4674 0.371749 27.1548C0.609776 26.8423 0.93261 26.6667 1.26923 26.6667H31.7308C32.0674 26.6667 32.3902 26.8423 32.6283 27.1548C32.8663 27.4674 33 27.8913 33 28.3333C33 28.7754 32.8663 29.1993 32.6283 29.5118C32.3902 29.8244 32.0674 30 31.7308 30H1.26923C0.93261 30 0.609776 29.8244 0.371749 29.5118C0.133722 29.1993 0 28.7754 0 28.3333Z" fill="#FBF7FB"/>
</svg>
