<svg width="680" height="104" viewBox="0 0 680 104" fill="none" xmlns="http://www.w3.org/2000/svg">
<path fill-rule="evenodd" clip-rule="evenodd" d="M98.0217 38.3158C99.8898 38.3158 101.402 39.54 101.402 41.0526V62.9474C101.402 64.46 99.8898 65.6842 98.0217 65.6842C96.1536 65.6842 94.6416 64.46 94.6416 62.9474V41.0526C94.6416 39.54 96.1536 38.3158 98.0217 38.3158ZM111.542 43.7895C113.41 43.7895 114.922 45.0137 114.922 46.5263V57.4737C114.922 58.9863 113.41 60.2105 111.542 60.2105C109.674 60.2105 108.162 58.9863 108.162 57.4737V46.5263C108.162 45.0137 109.674 43.7895 111.542 43.7895ZM84.5015 27.3684C86.3696 27.3684 87.8815 28.5927 87.8815 30.1053V73.8947C87.8815 75.4074 86.3696 76.6316 84.5015 76.6316C82.6333 76.6316 81.1214 75.4074 81.1214 73.8947V30.1053C81.1214 28.5927 82.6333 27.3684 84.5015 27.3684ZM125.062 10.9474C126.93 10.9474 128.442 12.1716 128.442 13.6842V90.3158C128.442 91.8284 126.93 93.0526 125.062 93.0526C123.194 93.0526 121.682 91.8284 121.682 90.3158V13.6842C121.682 12.1716 123.194 10.9474 125.062 10.9474ZM70.9812 16.4211C72.8493 16.4211 74.3613 17.6453 74.3613 19.1579V84.8421C74.3613 86.3547 72.8493 87.5789 70.9812 87.5789C69.1131 87.5789 67.6012 86.3547 67.6012 84.8421V19.1579C67.6012 17.6453 69.1131 16.4211 70.9812 16.4211ZM138.582 16.4211C140.45 16.4211 141.962 17.6453 141.962 19.1579V84.8421C141.962 86.3547 140.45 87.5789 138.582 87.5789C136.714 87.5789 135.202 86.3547 135.202 84.8421V19.1579C135.202 17.6453 136.714 16.4211 138.582 16.4211ZM327.866 16.4211C329.734 16.4211 331.246 17.6453 331.246 19.1579V84.8421C331.246 86.3547 329.734 87.5789 327.866 87.5789C325.998 87.5789 324.486 86.3547 324.486 84.8421V19.1579C324.486 17.6453 325.998 16.4211 327.866 16.4211ZM341.386 27.3684C343.254 27.3684 344.766 28.5927 344.766 30.1053V73.8947C344.766 75.4074 343.254 76.6316 341.386 76.6316C339.518 76.6316 338.006 75.4074 338.006 73.8947V30.1053C338.006 28.5927 339.518 27.3684 341.386 27.3684ZM354.906 32.8421C356.774 32.8421 358.286 34.0663 358.286 35.5789V68.4211C358.286 69.9337 356.774 71.1579 354.906 71.1579C353.038 71.1579 351.526 69.9337 351.526 68.4211V35.5789C351.526 34.0663 353.038 32.8421 354.906 32.8421ZM368.426 38.3158C370.294 38.3158 371.806 39.54 371.806 41.0526V62.9474C371.806 64.46 370.294 65.6842 368.426 65.6842C366.558 65.6842 365.046 64.46 365.046 62.9474V41.0526C365.046 39.54 366.558 38.3158 368.426 38.3158ZM381.947 43.7895C383.815 43.7895 385.327 45.0137 385.327 46.5263V57.4737C385.327 58.9863 383.815 60.2105 381.947 60.2105C380.078 60.2105 378.566 58.9863 378.566 57.4737V46.5263C378.566 45.0137 380.078 43.7895 381.947 43.7895ZM395.467 49.2632C397.335 49.2632 398.847 50.4874 398.847 52C398.847 53.5126 397.335 54.7368 395.467 54.7368C393.599 54.7368 392.087 53.5126 392.087 52C392.087 50.4874 393.599 49.2632 395.467 49.2632ZM16.9003 43.7895C18.7684 43.7895 20.2803 45.0137 20.2803 46.5263V57.4737C20.2803 58.9863 18.7684 60.2105 16.9003 60.2105C15.0322 60.2105 13.5202 58.9863 13.5202 57.4737V46.5263C13.5202 45.0137 15.0322 43.7895 16.9003 43.7895ZM3.38006 49.2632C5.24817 49.2632 6.76012 50.4874 6.76012 52C6.76012 53.5126 5.24817 54.7368 3.38006 54.7368C1.51195 54.7368 0 53.5126 0 52C0 50.4874 1.51195 49.2632 3.38006 49.2632ZM179.143 38.3158C181.011 38.3158 182.523 39.54 182.523 41.0526V62.9474C182.523 64.46 181.011 65.6842 179.143 65.6842C177.275 65.6842 175.763 64.46 175.763 62.9474V41.0526C175.763 39.54 177.275 38.3158 179.143 38.3158ZM192.663 27.3684C194.531 27.3684 196.043 28.5927 196.043 30.1053V73.8947C196.043 75.4074 194.531 76.6316 192.663 76.6316C190.795 76.6316 189.283 75.4074 189.283 73.8947V30.1053C189.283 28.5927 190.795 27.3684 192.663 27.3684ZM206.184 32.8421C208.052 32.8421 209.564 34.0663 209.564 35.5789V68.4211C209.564 69.9337 208.052 71.1579 206.184 71.1579C204.315 71.1579 202.803 69.9337 202.803 68.4211V35.5789C202.803 34.0663 204.315 32.8421 206.184 32.8421ZM152.103 21.8947C153.971 21.8947 155.483 23.119 155.483 24.6316V79.3684C155.483 80.881 153.971 82.1053 152.103 82.1053C150.234 82.1053 148.723 80.881 148.723 79.3684V24.6316C148.723 23.119 150.234 21.8947 152.103 21.8947ZM165.623 43.7895C167.491 43.7895 169.003 45.0137 169.003 46.5263V57.4737C169.003 58.9863 167.491 60.2105 165.623 60.2105C163.755 60.2105 162.243 58.9863 162.243 57.4737V46.5263C162.243 45.0137 163.755 43.7895 165.623 43.7895ZM246.744 32.8421C248.612 32.8421 250.124 34.0663 250.124 35.5789V68.4211C250.124 69.9337 248.612 71.1579 246.744 71.1579C244.876 71.1579 243.364 69.9337 243.364 68.4211V35.5789C243.364 34.0663 244.876 32.8421 246.744 32.8421ZM300.825 32.8421C302.693 32.8421 304.205 34.0663 304.205 35.5789V68.4211C304.205 69.9337 302.693 71.1579 300.825 71.1579C298.957 71.1579 297.445 69.9337 297.445 68.4211V35.5789C297.445 34.0663 298.957 32.8421 300.825 32.8421ZM260.264 38.3158C262.133 38.3158 263.645 39.54 263.645 41.0526V62.9474C263.645 64.46 262.133 65.6842 260.264 65.6842C258.396 65.6842 256.884 64.46 256.884 62.9474V41.0526C256.884 39.54 258.396 38.3158 260.264 38.3158ZM287.305 38.3158C289.173 38.3158 290.685 39.54 290.685 41.0526V62.9474C290.685 64.46 289.173 65.6842 287.305 65.6842C285.437 65.6842 283.925 64.46 283.925 62.9474V41.0526C283.925 39.54 285.437 38.3158 287.305 38.3158ZM273.785 43.7895C275.653 43.7895 277.165 45.0137 277.165 46.5263V57.4737C277.165 58.9863 275.653 60.2105 273.785 60.2105C271.917 60.2105 270.405 58.9863 270.405 57.4737V46.5263C270.405 45.0137 271.917 43.7895 273.785 43.7895ZM57.461 0C59.3291 0 60.841 1.22423 60.841 2.73684V101.263C60.841 102.776 59.3291 104 57.461 104C55.5929 104 54.0809 102.776 54.0809 101.263V2.73684C54.0809 1.22423 55.5929 0 57.461 0ZM43.9408 16.4211C45.8089 16.4211 47.3208 17.6453 47.3208 19.1579V84.8421C47.3208 86.3547 45.8089 87.5789 43.9408 87.5789C42.0726 87.5789 40.5607 86.3547 40.5607 84.8421V19.1579C40.5607 17.6453 42.0726 16.4211 43.9408 16.4211ZM30.4205 32.8421C32.2886 32.8421 33.8006 34.0663 33.8006 35.5789V68.4211C33.8006 69.9337 32.2886 71.1579 30.4205 71.1579C28.5524 71.1579 27.0405 69.9337 27.0405 68.4211V35.5789C27.0405 34.0663 28.5524 32.8421 30.4205 32.8421ZM233.224 21.8947C235.092 21.8947 236.604 23.119 236.604 24.6316V79.3684C236.604 80.881 235.092 82.1053 233.224 82.1053C231.356 82.1053 229.844 80.881 229.844 79.3684V24.6316C229.844 23.119 231.356 21.8947 233.224 21.8947ZM314.345 21.8947C316.214 21.8947 317.725 23.119 317.725 24.6316V79.3684C317.725 80.881 316.214 82.1053 314.345 82.1053C312.477 82.1053 310.965 80.881 310.965 79.3684V24.6316C310.965 23.119 312.477 21.8947 314.345 21.8947ZM219.704 38.3158C221.572 38.3158 223.084 39.54 223.084 41.0526V62.9474C223.084 64.46 221.572 65.6842 219.704 65.6842C217.836 65.6842 216.324 64.46 216.324 62.9474V41.0526C216.324 39.54 217.836 38.3158 219.704 38.3158Z" fill="#FBF7FB"/>
<path fill-rule="evenodd" clip-rule="evenodd" d="M406.216 9.86072C408.084 9.86072 409.596 11.0849 409.596 12.5976V89.2291C409.596 90.7418 408.084 91.966 406.216 91.966C404.347 91.966 402.835 90.7418 402.835 89.2291V12.5976C402.835 11.0849 404.347 9.86072 406.216 9.86072ZM419.736 15.3344C421.604 15.3344 423.116 16.5586 423.116 18.0712V83.7555C423.116 85.2681 421.604 86.4923 419.736 86.4923C417.868 86.4923 416.356 85.2681 416.356 83.7555V18.0712C416.356 16.5586 417.868 15.3344 419.736 15.3344ZM609.019 15.3344C610.887 15.3344 612.399 16.5586 612.399 18.0712V83.7555C612.399 85.2681 610.887 86.4923 609.019 86.4923C607.151 86.4923 605.639 85.2681 605.639 83.7555V18.0712C605.639 16.5586 607.151 15.3344 609.019 15.3344ZM622.539 26.2818C624.407 26.2818 625.919 27.506 625.919 29.0186V72.8081C625.919 74.3207 624.407 75.5449 622.539 75.5449C620.671 75.5449 619.159 74.3207 619.159 72.8081V29.0186C619.159 27.506 620.671 26.2818 622.539 26.2818ZM636.059 31.7555C637.928 31.7555 639.44 32.9797 639.44 34.4923V67.3344C639.44 68.847 637.928 70.0713 636.059 70.0713C634.191 70.0713 632.679 68.847 632.679 67.3344V34.4923C632.679 32.9797 634.191 31.7555 636.059 31.7555ZM649.58 37.2291C651.448 37.2291 652.96 38.4534 652.96 39.966V61.8607C652.96 63.3733 651.448 64.5976 649.58 64.5976C647.712 64.5976 646.2 63.3733 646.2 61.8607V39.966C646.2 38.4534 647.712 37.2291 649.58 37.2291ZM663.1 42.7028C664.968 42.7028 666.48 43.9271 666.48 45.4397V56.387C666.48 57.8996 664.968 59.1239 663.1 59.1239C661.232 59.1239 659.72 57.8996 659.72 56.387V45.4397C659.72 43.9271 661.232 42.7028 663.1 42.7028ZM676.62 48.1765C678.488 48.1765 680 49.4007 680 50.9134C680 52.426 678.488 53.6502 676.62 53.6502C674.752 53.6502 673.24 52.426 673.24 50.9134C673.24 49.4007 674.752 48.1765 676.62 48.1765ZM460.296 37.2291C462.165 37.2291 463.676 38.4534 463.676 39.966V61.8607C463.676 63.3733 462.165 64.5976 460.296 64.5976C458.428 64.5976 456.916 63.3733 456.916 61.8607V39.966C456.916 38.4534 458.428 37.2291 460.296 37.2291ZM473.817 26.2818C475.685 26.2818 477.197 27.506 477.197 29.0186V72.8081C477.197 74.3207 475.685 75.5449 473.817 75.5449C471.949 75.5449 470.437 74.3207 470.437 72.8081V29.0186C470.437 27.506 471.949 26.2818 473.817 26.2818ZM487.337 31.7555C489.205 31.7555 490.717 32.9797 490.717 34.4923V67.3344C490.717 68.847 489.205 70.0713 487.337 70.0713C485.469 70.0713 483.957 68.847 483.957 67.3344V34.4923C483.957 32.9797 485.469 31.7555 487.337 31.7555ZM433.256 20.8081C435.124 20.8081 436.636 22.0323 436.636 23.5449V78.2818C436.636 79.7944 435.124 81.0186 433.256 81.0186C431.388 81.0186 429.876 79.7944 429.876 78.2818V23.5449C429.876 22.0323 431.388 20.8081 433.256 20.8081ZM446.776 42.7028C448.644 42.7028 450.156 43.9271 450.156 45.4397V56.387C450.156 57.8996 448.644 59.1239 446.776 59.1239C444.908 59.1239 443.396 57.8996 443.396 56.387V45.4397C443.396 43.9271 444.908 42.7028 446.776 42.7028ZM527.898 31.7555C529.766 31.7555 531.278 32.9797 531.278 34.4923V67.3344C531.278 68.847 529.766 70.0713 527.898 70.0713C526.029 70.0713 524.518 68.847 524.518 67.3344V34.4923C524.518 32.9797 526.029 31.7555 527.898 31.7555ZM581.979 31.7555C583.847 31.7555 585.359 32.9797 585.359 34.4923V67.3344C585.359 68.847 583.847 70.0713 581.979 70.0713C580.11 70.0713 578.598 68.847 578.598 67.3344V34.4923C578.598 32.9797 580.11 31.7555 581.979 31.7555ZM541.418 37.2291C543.286 37.2291 544.798 38.4534 544.798 39.966V61.8607C544.798 63.3733 543.286 64.5976 541.418 64.5976C539.55 64.5976 538.038 63.3733 538.038 61.8607V39.966C538.038 38.4534 539.55 37.2291 541.418 37.2291ZM568.458 37.2291C570.326 37.2291 571.838 38.4534 571.838 39.966V61.8607C571.838 63.3733 570.326 64.5976 568.458 64.5976C566.59 64.5976 565.078 63.3733 565.078 61.8607V39.966C565.078 38.4534 566.59 37.2291 568.458 37.2291ZM554.938 42.7028C556.806 42.7028 558.318 43.9271 558.318 45.4397V56.387C558.318 57.8996 556.806 59.1239 554.938 59.1239C553.07 59.1239 551.558 57.8996 551.558 56.387V45.4397C551.558 43.9271 553.07 42.7028 554.938 42.7028ZM514.377 20.8081C516.245 20.8081 517.757 22.0323 517.757 23.5449V78.2818C517.757 79.7944 516.245 81.0186 514.377 81.0186C512.509 81.0186 510.997 79.7944 510.997 78.2818V23.5449C510.997 22.0323 512.509 20.8081 514.377 20.8081ZM595.499 20.8081C597.367 20.8081 598.879 22.0323 598.879 23.5449V78.2818C598.879 79.7944 597.367 81.0186 595.499 81.0186C593.631 81.0186 592.119 79.7944 592.119 78.2818V23.5449C592.119 22.0323 593.631 20.8081 595.499 20.8081ZM500.857 37.2291C502.725 37.2291 504.237 38.4534 504.237 39.966V61.8607C504.237 63.3733 502.725 64.5976 500.857 64.5976C498.989 64.5976 497.477 63.3733 497.477 61.8607V39.966C497.477 38.4534 498.989 37.2291 500.857 37.2291Z" fill="#FBF7FB"/>
</svg>
