<svg width="25" height="30" viewBox="0 0 25 30" fill="none" xmlns="http://www.w3.org/2000/svg">
<path d="M11.5254 0.0414319C11.3852 -0.00170153 11.2368 -0.0113214 11.0922 0.0133466C10.9475 0.0380145 10.8107 0.0962813 10.6927 0.18346C10.5747 0.270639 10.4788 0.384296 10.4128 0.515289C10.3467 0.646281 10.3123 0.790952 10.3123 0.937665V19.5092C9.28843 18.5269 7.95386 17.9327 6.53877 17.829C5.12367 17.7254 3.71676 18.1188 2.56069 18.9414C1.40461 19.7641 0.571852 20.9643 0.206024 22.3353C-0.159804 23.7062 -0.0357622 25.1618 0.556756 26.451C1.14927 27.7403 2.17312 28.7823 3.45172 29.3975C4.73032 30.0127 6.18351 30.1624 7.56066 29.8208C8.93782 29.4792 10.1526 28.6677 10.9955 27.5263C11.8384 26.3849 12.2566 24.9852 12.1779 23.5685C12.184 23.525 12.1872 23.4811 12.1873 23.4372V9.70687L23.1614 13.0818C23.3015 13.1249 23.4497 13.1345 23.5942 13.11C23.7387 13.0854 23.8754 13.0273 23.9934 12.9403C24.1113 12.8534 24.2073 12.74 24.2734 12.6092C24.3396 12.4785 24.3743 12.334 24.3745 12.1874V7.45691C24.3747 6.45426 24.0534 5.47796 23.4578 4.6714C22.8621 3.86484 22.0236 3.27053 21.0652 2.97575L11.5254 0.0414319ZM22.4996 10.9181L12.1873 7.74566V2.20702L20.514 4.76822C21.089 4.94509 21.5921 5.30167 21.9495 5.78561C22.3069 6.26954 22.4997 6.85532 22.4996 7.45691V10.9181ZM1.87497 23.906C1.87497 22.7871 2.31943 21.7141 3.11059 20.9229C3.90174 20.1318 4.97478 19.6873 6.09364 19.6873C7.2125 19.6873 8.28553 20.1318 9.07668 20.9229C9.86784 21.7141 10.3123 22.7871 10.3123 23.906C10.3123 25.0248 9.86784 26.0979 9.07668 26.889C8.28553 27.6802 7.2125 28.1246 6.09364 28.1246C4.97478 28.1246 3.90174 27.6802 3.11059 26.889C2.31943 26.0979 1.87497 25.0248 1.87497 23.906Z" fill="#FBF7FB"/>
</svg>
